<?xml version="1.0" encoding="UTF-8"?>
<svg xmlns="http://www.w3.org/2000/svg" xmlns:xlink="http://www.w3.org/1999/xlink" width="242pt" height="42pt" viewBox="0 0 242 42" version="1.1">
<g id="surface1">
<path style=" stroke:none;fill-rule:nonzero;fill:rgb(60%,60%,60%);fill-opacity:1;" d="M 237.304688 0.101562 C 238.121094 0.101562 238.9375 0.308594 239.550781 0.71875 C 240.367188 1.125 240.875 1.742188 241.285156 2.457031 C 241.695312 3.277344 241.898438 3.996094 241.898438 4.917969 C 241.898438 5.738281 241.695312 6.554688 241.285156 7.273438 C 240.875 8.09375 240.265625 8.605469 239.550781 9.015625 C 238.734375 9.425781 238.019531 9.628906 237.304688 9.628906 C 236.484375 9.628906 235.667969 9.425781 235.054688 9.015625 C 234.238281 8.605469 233.730469 7.992188 233.320312 7.273438 C 232.914062 6.453125 232.707031 5.738281 232.707031 4.917969 C 232.707031 4.097656 232.914062 3.277344 233.320312 2.457031 C 233.730469 1.640625 234.339844 1.125 235.054688 0.71875 C 235.875 0.308594 236.589844 0.101562 237.304688 0.101562 M 237.304688 0.921875 C 236.691406 0.921875 235.976562 1.125 235.464844 1.433594 C 234.851562 1.742188 234.445312 2.253906 234.035156 2.867188 C 233.730469 3.484375 233.523438 4.097656 233.523438 4.816406 C 233.523438 5.429688 233.730469 6.144531 234.035156 6.761719 C 234.339844 7.375 234.851562 7.886719 235.464844 8.195312 C 236.078125 8.503906 236.691406 8.707031 237.304688 8.707031 C 237.914062 8.707031 238.628906 8.503906 239.242188 8.195312 C 239.855469 7.886719 240.265625 7.375 240.671875 6.761719 C 240.980469 6.144531 241.183594 5.53125 241.183594 4.816406 C 241.183594 4.097656 240.980469 3.484375 240.671875 2.867188 C 240.367188 2.253906 239.855469 1.742188 239.242188 1.433594 C 238.628906 1.125 237.914062 0.921875 237.304688 0.921875 M 235.261719 7.273438 L 235.261719 2.253906 L 236.28125 2.253906 C 237.304688 2.253906 237.8125 2.253906 237.914062 2.253906 C 238.222656 2.253906 238.527344 2.355469 238.734375 2.457031 C 238.9375 2.5625 239.039062 2.765625 239.140625 2.867188 C 239.242188 3.074219 239.34375 3.277344 239.34375 3.585938 C 239.34375 3.996094 239.242188 4.199219 239.039062 4.507812 C 238.734375 4.816406 238.425781 4.917969 238.019531 4.917969 C 238.121094 5.019531 238.324219 5.019531 238.324219 5.121094 C 238.425781 5.222656 238.527344 5.328125 238.628906 5.53125 C 238.734375 5.632812 238.734375 5.839844 239.039062 6.144531 L 239.652344 7.171875 L 238.324219 7.171875 L 237.914062 6.351562 C 237.609375 5.839844 237.40625 5.429688 237.199219 5.328125 C 237.097656 5.222656 236.894531 5.121094 236.589844 5.121094 L 236.28125 5.121094 L 236.28125 7.171875 Z M 236.28125 4.40625 L 236.691406 4.40625 C 237.304688 4.40625 237.710938 4.40625 237.8125 4.300781 C 237.914062 4.199219 238.121094 4.199219 238.121094 3.996094 C 238.222656 3.894531 238.222656 3.6875 238.222656 3.585938 C 238.222656 3.484375 238.121094 3.277344 238.121094 3.175781 C 238.019531 3.074219 237.914062 2.972656 237.8125 2.867188 C 237.710938 2.765625 237.304688 2.765625 236.691406 2.765625 L 236.28125 2.765625 Z M 236.28125 4.40625 "/>
<path style=" stroke:none;fill-rule:nonzero;fill:rgb(60%,60%,60%);fill-opacity:1;" d="M 136.214844 37.492188 L 141.726562 37.492188 C 143.261719 37.492188 144.585938 36.980469 145.609375 35.855469 C 146.730469 34.726562 147.242188 33.496094 147.242188 31.960938 L 147.242188 29.296875 L 147.140625 29.398438 C 145.402344 31.140625 143.054688 31.960938 139.890625 31.960938 C 136.828125 31.960938 134.171875 30.835938 132.027344 28.683594 C 129.882812 26.53125 128.863281 23.867188 128.863281 20.796875 C 128.863281 17.722656 129.984375 15.058594 132.027344 12.90625 C 134.171875 10.757812 136.828125 9.730469 139.890625 9.628906 C 142.75 9.628906 145.199219 10.449219 147.242188 12.191406 C 149.285156 13.933594 150.507812 16.183594 151.019531 18.953125 L 147.34375 18.953125 C 146.832031 17.210938 146.015625 15.777344 144.6875 14.855469 C 143.363281 13.828125 141.832031 13.417969 139.992188 13.417969 C 137.949219 13.417969 136.214844 14.136719 134.785156 15.570312 C 133.355469 17.003906 132.640625 18.746094 132.640625 20.796875 C 132.640625 22.84375 133.355469 24.585938 134.785156 26.019531 C 136.214844 27.453125 137.949219 28.171875 139.992188 28.171875 C 141.832031 28.171875 143.363281 27.761719 144.6875 26.738281 C 146.015625 25.710938 146.9375 24.378906 147.34375 22.640625 L 151.019531 22.640625 L 151.019531 31.960938 C 151.019531 34.523438 150.101562 36.777344 148.367188 38.515625 C 146.527344 40.359375 144.382812 41.179688 141.832031 41.179688 L 136.316406 41.179688 L 136.316406 37.492188 Z M 136.214844 37.492188 "/>
<path style=" stroke:none;fill-rule:nonzero;fill:rgb(60%,60%,60%);fill-opacity:1;" d="M 152.347656 2.253906 L 156.023438 2.253906 L 156.023438 31.960938 L 152.347656 31.960938 Z M 152.347656 2.253906 "/>
<path style=" stroke:none;fill-rule:nonzero;fill:rgb(60%,60%,60%);fill-opacity:1;" d="M 179.507812 20.898438 C 179.507812 23.972656 178.386719 26.632812 176.34375 28.785156 C 174.199219 30.9375 171.542969 31.960938 168.480469 31.960938 C 165.417969 31.960938 162.761719 30.835938 160.617188 28.785156 C 158.472656 26.632812 157.453125 23.972656 157.453125 20.898438 C 157.453125 17.824219 158.578125 15.160156 160.617188 13.007812 C 162.761719 10.859375 165.417969 9.835938 168.480469 9.835938 C 171.542969 9.835938 174.199219 10.960938 176.34375 13.007812 C 178.386719 15.058594 179.507812 17.722656 179.507812 20.898438 Z M 175.730469 20.898438 C 175.730469 18.746094 175.015625 17.003906 173.585938 15.570312 C 172.15625 14.136719 170.421875 13.417969 168.378906 13.417969 C 166.335938 13.417969 164.5 14.136719 163.171875 15.570312 C 161.742188 17.003906 161.027344 18.746094 161.027344 20.898438 C 161.027344 23.046875 161.742188 24.789062 163.171875 26.222656 C 164.601562 27.660156 166.335938 28.375 168.378906 28.375 C 170.421875 28.375 172.257812 27.660156 173.585938 26.222656 C 175.015625 24.6875 175.730469 22.945312 175.730469 20.898438 Z M 175.730469 20.898438 "/>
<path style=" stroke:none;fill-rule:nonzero;fill:rgb(60%,60%,60%);fill-opacity:1;" d="M 180.734375 2.253906 L 184.410156 2.253906 L 184.410156 12.496094 C 186.554688 10.652344 189.003906 9.730469 191.761719 9.730469 C 194.824219 9.730469 197.480469 10.859375 199.625 12.90625 C 201.769531 15.058594 202.789062 17.722656 202.789062 20.796875 C 202.789062 23.867188 201.667969 26.53125 199.625 28.683594 C 197.480469 30.835938 194.824219 31.859375 191.761719 31.859375 C 188.699219 31.859375 186.042969 30.730469 183.898438 28.683594 C 181.753906 26.53125 180.734375 23.867188 180.734375 20.796875 Z M 199.214844 20.898438 C 199.214844 18.746094 198.5 17.003906 197.070312 15.570312 C 195.640625 14.136719 193.90625 13.417969 191.863281 13.417969 C 189.820312 13.417969 187.984375 14.136719 186.65625 15.570312 C 185.226562 17.003906 184.511719 18.746094 184.511719 20.898438 C 184.511719 23.046875 185.226562 24.789062 186.65625 26.222656 C 188.085938 27.660156 189.820312 28.375 191.863281 28.375 C 193.90625 28.375 195.746094 27.660156 197.070312 26.222656 C 198.5 24.6875 199.214844 22.945312 199.214844 20.898438 Z M 199.214844 20.898438 "/>
<path style=" stroke:none;fill-rule:nonzero;fill:rgb(60%,60%,60%);fill-opacity:1;" d="M 226.378906 20.898438 L 226.378906 32.0625 L 222.703125 32.0625 L 222.703125 29.296875 C 220.660156 31.140625 218.105469 32.0625 215.347656 32.0625 C 212.285156 32.0625 209.632812 30.9375 207.488281 28.886719 C 205.34375 26.738281 204.320312 24.074219 204.320312 21 C 204.320312 17.925781 205.445312 15.261719 207.488281 13.113281 C 209.632812 10.960938 212.285156 9.9375 215.347656 9.9375 C 218.414062 9.9375 221.066406 11.0625 223.210938 13.113281 C 225.355469 15.058594 226.378906 17.722656 226.378906 20.898438 Z M 222.703125 20.898438 C 222.703125 18.746094 221.988281 17.003906 220.558594 15.570312 C 219.128906 14.136719 217.390625 13.417969 215.347656 13.417969 C 213.308594 13.417969 211.46875 14.136719 210.140625 15.570312 C 208.710938 17.003906 207.996094 18.746094 207.996094 20.898438 C 207.996094 23.046875 208.710938 24.789062 210.140625 26.222656 C 211.570312 27.660156 213.308594 28.375 215.347656 28.375 C 217.390625 28.375 219.230469 27.660156 220.558594 26.222656 C 221.988281 24.6875 222.703125 22.945312 222.703125 20.898438 Z M 222.703125 20.898438 "/>
<path style=" stroke:none;fill-rule:nonzero;fill:rgb(60%,60%,60%);fill-opacity:1;" d="M 227.703125 2.253906 L 231.378906 2.253906 L 231.378906 31.960938 L 227.703125 31.960938 Z M 227.703125 2.253906 "/>
<path style=" stroke:none;fill-rule:nonzero;fill:rgb(100%,100%,100%);fill-opacity:1;" d="M 21.136719 16.59375 C 20.832031 15.980469 20.523438 15.261719 20.117188 14.75 C 19.707031 14.136719 19.296875 13.625 18.789062 13.113281 C 17.765625 12.085938 16.644531 11.269531 15.214844 10.652344 C 13.988281 10.039062 12.457031 9.730469 10.824219 9.730469 C 9.191406 9.730469 7.761719 10.039062 6.433594 10.652344 C 5.105469 11.269531 3.980469 12.085938 2.960938 13.007812 C 1.941406 14.035156 1.125 15.261719 0.613281 16.492188 C 0.304688 17.925781 0 19.359375 0 20.898438 C 0 22.535156 0.304688 23.972656 0.917969 25.300781 C 1.53125 26.632812 2.347656 27.863281 3.265625 28.785156 C 4.289062 29.808594 5.410156 30.628906 6.738281 31.242188 C 8.066406 31.859375 9.496094 32.164062 11.128906 32.164062 C 12.96875 32.164062 14.5 31.757812 16.132812 30.9375 C 17.050781 30.527344 17.765625 29.914062 18.480469 29.398438 L 18.480469 32.164062 L 22.15625 32.164062 L 22.15625 20.898438 C 22.054688 19.359375 21.75 17.925781 21.136719 16.59375 Z M 11.027344 13.523438 C 12.050781 13.523438 12.96875 13.726562 13.886719 14.136719 C 14.703125 14.546875 15.519531 15.058594 16.234375 15.671875 C 17.050781 16.492188 17.460938 17.3125 17.871094 18.132812 C 18.277344 18.953125 18.480469 19.976562 18.480469 21 C 18.480469 22.023438 18.277344 23.046875 17.871094 23.867188 C 17.5625 24.6875 16.949219 25.507812 16.234375 26.222656 C 15.519531 26.941406 14.804688 27.453125 13.886719 27.863281 C 12.050781 28.683594 10.007812 28.683594 8.167969 27.863281 C 7.351562 27.453125 6.535156 26.941406 5.820312 26.222656 C 5.105469 25.507812 4.59375 24.789062 4.1875 23.867188 C 3.777344 23.046875 3.574219 22.023438 3.574219 21 C 3.574219 19.976562 3.777344 19.054688 4.1875 18.132812 C 4.492188 17.3125 5.105469 16.492188 5.820312 15.777344 C 6.535156 15.058594 7.25 14.546875 8.167969 14.136719 C 9.085938 13.726562 10.109375 13.523438 11.027344 13.523438 Z M 11.027344 13.523438 "/>
<path style=" stroke:none;fill-rule:nonzero;fill:rgb(100%,100%,100%);fill-opacity:1;" d="M 27.058594 16.183594 C 27.058594 17.003906 27.367188 17.722656 27.875 18.335938 C 28.386719 18.847656 29 19.15625 29.816406 19.15625 L 38.902344 19.15625 C 39.71875 19.15625 40.640625 19.359375 41.355469 19.769531 C 42.070312 20.078125 42.785156 20.488281 43.398438 21.101562 C 43.90625 21.613281 44.417969 22.332031 44.722656 23.152344 C 45.03125 23.972656 45.234375 24.789062 45.234375 25.609375 C 45.234375 26.53125 45.03125 27.351562 44.722656 28.171875 C 44.316406 29.09375 43.90625 29.707031 43.398438 30.320312 C 42.785156 30.9375 42.070312 31.449219 41.355469 31.757812 C 40.640625 32.0625 39.71875 32.269531 38.902344 32.269531 L 23.28125 32.269531 L 23.28125 28.582031 L 39.109375 28.582031 C 39.824219 28.582031 40.332031 28.273438 40.945312 27.761719 C 41.558594 27.144531 41.761719 26.53125 41.761719 25.710938 C 41.761719 24.894531 41.457031 24.277344 40.945312 23.765625 C 40.433594 23.253906 39.71875 22.945312 39.007812 22.945312 L 29.816406 22.945312 C 29 22.945312 28.082031 22.742188 27.261719 22.433594 C 26.445312 22.125 25.832031 21.613281 25.117188 21 C 24.507812 20.386719 23.996094 19.667969 23.6875 18.847656 C 23.382812 18.132812 23.179688 17.210938 23.179688 16.289062 C 23.179688 15.367188 23.382812 14.546875 23.6875 13.726562 C 23.996094 13.007812 24.507812 12.292969 25.117188 11.679688 C 25.832031 11.0625 26.546875 10.652344 27.160156 10.347656 C 27.875 10.039062 28.796875 9.835938 29.714844 9.835938 L 45.335938 9.835938 L 45.335938 13.523438 L 29.917969 13.523438 C 29.203125 13.523438 28.488281 13.828125 27.875 14.339844 C 27.261719 14.75 27.058594 15.367188 27.058594 16.183594 Z M 27.058594 16.183594 "/>
<path style=" stroke:none;fill-rule:nonzero;fill:rgb(100%,100%,100%);fill-opacity:1;" d="M 67.800781 16.59375 C 67.1875 15.058594 66.371094 13.933594 65.351562 13.007812 C 64.429688 11.984375 63.207031 11.164062 61.878906 10.652344 C 60.550781 10.039062 59.222656 9.730469 57.589844 9.730469 C 55.957031 9.730469 54.527344 10.039062 53.199219 10.652344 C 51.871094 11.269531 50.75 12.085938 49.726562 13.007812 C 48.707031 14.035156 47.890625 15.160156 47.378906 16.492188 C 46.765625 17.925781 46.460938 19.257812 46.460938 20.898438 L 46.460938 42 L 50.136719 42 L 50.136719 29.296875 C 50.851562 29.914062 51.566406 30.425781 52.382812 30.9375 C 54.015625 31.757812 55.648438 32.164062 57.488281 32.164062 C 59.019531 32.164062 60.449219 31.859375 61.777344 31.242188 C 63.105469 30.628906 64.226562 29.808594 65.25 28.886719 C 66.269531 27.863281 67.085938 26.632812 67.597656 25.40625 C 68.210938 23.972656 68.515625 22.535156 68.515625 21 C 68.617188 19.464844 68.414062 18.027344 67.800781 16.59375 Z M 57.589844 13.523438 C 58.609375 13.523438 59.53125 13.726562 60.449219 14.136719 C 61.265625 14.546875 62.183594 15.058594 62.796875 15.777344 C 63.511719 16.492188 64.023438 17.210938 64.429688 18.132812 C 64.839844 18.953125 65.042969 19.976562 65.042969 21 C 65.042969 22.023438 64.839844 23.046875 64.429688 23.867188 C 64.125 24.6875 63.511719 25.507812 62.796875 26.222656 C 62.082031 26.941406 61.367188 27.453125 60.449219 27.863281 C 58.714844 28.683594 56.570312 28.683594 54.832031 27.863281 C 53.914062 27.453125 53.097656 26.941406 52.585938 26.222656 C 51.871094 25.507812 51.359375 24.789062 50.953125 23.867188 C 50.542969 23.046875 50.339844 22.023438 50.339844 21 C 50.339844 19.976562 50.542969 19.054688 50.953125 18.132812 C 51.257812 17.3125 51.871094 16.492188 52.585938 15.777344 C 53.300781 15.058594 54.015625 14.546875 54.832031 14.136719 C 55.648438 13.726562 56.671875 13.523438 57.589844 13.523438 Z M 57.589844 13.523438 "/>
<path style=" stroke:none;fill-rule:nonzero;fill:rgb(100%,100%,100%);fill-opacity:1;" d="M 69.84375 5.328125 L 73.519531 5.328125 L 73.519531 9.015625 L 69.84375 9.015625 Z M 69.84375 5.328125 "/>
<path style=" stroke:none;fill-rule:nonzero;fill:rgb(100%,100%,100%);fill-opacity:1;" d="M 69.84375 9.9375 L 73.519531 9.9375 L 73.519531 32.0625 L 69.84375 32.0625 Z M 69.84375 9.9375 "/>
<path style=" stroke:none;fill-rule:nonzero;fill:rgb(100%,100%,100%);fill-opacity:1;" d="M 96.800781 20.898438 L 96.800781 21.71875 L 93.125 21.71875 L 93.125 20.898438 C 93.125 19.875 92.917969 18.953125 92.511719 18.027344 C 92.101562 17.105469 91.59375 16.289062 90.878906 15.671875 C 90.265625 15.058594 89.449219 14.445312 88.527344 14.035156 C 86.691406 13.214844 84.648438 13.214844 82.914062 14.035156 C 81.992188 14.445312 81.28125 14.957031 80.566406 15.671875 C 79.851562 16.390625 79.339844 17.3125 78.929688 18.027344 C 78.523438 18.953125 78.316406 19.875 78.316406 20.898438 L 78.316406 32.0625 L 74.640625 32.0625 L 74.640625 21 C 74.640625 19.359375 74.949219 18.027344 75.5625 16.59375 C 76.070312 15.261719 76.886719 14.136719 77.910156 13.113281 C 78.929688 12.085938 80.054688 11.269531 81.382812 10.757812 C 82.707031 10.140625 84.035156 9.835938 85.773438 9.835938 C 87.40625 9.835938 88.734375 10.140625 90.0625 10.757812 C 91.386719 11.269531 92.511719 12.085938 93.53125 13.113281 C 94.554688 14.035156 95.269531 15.160156 95.882812 16.59375 C 96.492188 18.027344 96.800781 19.464844 96.800781 20.898438 Z M 96.800781 20.898438 "/>
<path style=" stroke:none;fill-rule:nonzero;fill:rgb(100%,100%,100%);fill-opacity:1;" d="M 115.894531 23.664062 C 115.382812 24.996094 114.464844 26.121094 113.238281 27.042969 C 112.015625 27.863281 110.585938 28.273438 109.054688 28.273438 C 108.132812 28.273438 107.214844 28.066406 106.5 27.761719 C 105.785156 27.453125 104.96875 26.941406 104.253906 26.328125 C 103.640625 25.816406 103.128906 25.199219 102.621094 24.277344 C 102.3125 23.664062 102.109375 23.152344 101.90625 22.640625 L 120.082031 22.640625 L 120.082031 20.796875 C 120.082031 19.257812 119.773438 17.824219 119.160156 16.390625 C 118.550781 15.058594 117.734375 13.828125 116.8125 12.90625 C 115.792969 11.882812 114.667969 11.0625 113.339844 10.550781 C 112.015625 9.9375 110.585938 9.628906 108.949219 9.628906 C 107.316406 9.628906 105.886719 9.9375 104.558594 10.550781 C 103.234375 11.164062 102.109375 11.984375 101.089844 12.90625 C 100.066406 13.933594 99.25 15.058594 98.738281 16.390625 C 98.128906 17.722656 97.820312 19.15625 97.820312 20.796875 C 97.820312 22.433594 98.128906 23.867188 98.738281 25.199219 C 99.351562 26.53125 100.167969 27.761719 101.089844 28.683594 C 102.109375 29.707031 103.234375 30.527344 104.558594 31.039062 C 105.785156 31.652344 107.316406 31.960938 108.949219 31.960938 C 110.175781 31.960938 111.300781 31.757812 112.421875 31.347656 C 113.546875 30.9375 114.566406 30.425781 115.484375 29.707031 C 116.507812 28.992188 117.324219 28.066406 117.9375 27.25 C 118.652344 26.222656 119.265625 25.097656 119.570312 24.175781 L 119.773438 23.5625 Z M 102.722656 17.414062 C 103.128906 16.59375 103.742188 15.878906 104.355469 15.367188 C 104.96875 14.855469 105.683594 14.445312 106.601562 13.933594 C 108.339844 13.316406 110.175781 13.316406 111.808594 13.933594 C 112.628906 14.238281 113.445312 14.75 113.953125 15.367188 C 114.566406 15.878906 115.078125 16.492188 115.589844 17.414062 C 115.792969 18.027344 115.996094 18.542969 116.199219 19.054688 L 102.007812 19.054688 C 102.210938 18.4375 102.417969 17.925781 102.722656 17.414062 Z M 102.722656 17.414062 "/>
</g>
</svg>
