<?xml version="1.0" encoding="UTF-8"?>
<svg xmlns="http://www.w3.org/2000/svg" xmlns:xlink="http://www.w3.org/1999/xlink" width="147pt" height="58pt" viewBox="0 0 147 58" version="1.1">
<g id="surface1">
<path style=" stroke:none;fill-rule:nonzero;fill:rgb(100%,100%,100%);fill-opacity:1;" d="M 21.269531 7.980469 C 20.140625 6.847656 18.789062 5.941406 17.285156 5.261719 C 15.78125 4.582031 14.128906 4.28125 12.398438 4.28125 C 10.671875 4.28125 9.019531 4.582031 7.515625 5.261719 C 6.011719 5.941406 4.734375 6.847656 3.605469 7.980469 C 2.480469 9.113281 1.578125 10.46875 0.976562 11.902344 C 0.300781 13.488281 0 15.074219 0 16.808594 C 0 18.621094 0.300781 20.207031 0.976562 21.714844 C 1.652344 23.226562 2.554688 24.585938 3.605469 25.640625 C 4.734375 26.773438 6.011719 27.679688 7.515625 28.359375 C 9.019531 29.039062 10.671875 29.339844 12.398438 29.339844 C 14.429688 29.339844 16.234375 28.886719 18.035156 27.90625 C 19.238281 27.300781 20.292969 26.546875 21.117188 25.640625 L 21.117188 29.265625 L 24.800781 29.265625 L 24.800781 16.808594 C 24.800781 15.074219 24.5 13.488281 23.824219 11.902344 C 23.222656 10.394531 22.320312 9.035156 21.269531 7.980469 M 12.398438 8.054688 C 13.601562 8.054688 14.730469 8.28125 15.78125 8.734375 C 16.835938 9.1875 17.8125 9.867188 18.5625 10.621094 C 19.3125 11.453125 19.992188 12.355469 20.441406 13.488281 C 20.894531 14.546875 21.117188 15.753906 21.117188 16.886719 C 21.117188 18.019531 20.894531 19.226562 20.441406 20.28125 C 19.992188 21.339844 19.3125 22.320312 18.5625 23.152344 C 17.734375 23.980469 16.835938 24.585938 15.78125 25.039062 C 13.679688 26.019531 11.121094 26.019531 9.019531 25.039062 C 7.964844 24.585938 6.988281 23.90625 6.238281 23.152344 C 5.410156 22.320312 4.808594 21.414062 4.359375 20.28125 C 3.90625 19.226562 3.683594 18.019531 3.683594 16.886719 C 3.683594 15.753906 3.90625 14.546875 4.359375 13.488281 C 4.808594 12.433594 5.484375 11.453125 6.238281 10.621094 C 7.0625 9.789062 7.964844 9.1875 9.019531 8.734375 C 10.144531 8.28125 11.273438 8.054688 12.398438 8.054688 "/>
<path style=" stroke:none;fill-rule:nonzero;fill:rgb(100%,100%,100%);fill-opacity:1;" d="M 30.8125 4.882812 C 29.910156 5.261719 29.160156 5.789062 28.484375 6.394531 C 27.808594 7.074219 27.28125 7.828125 26.90625 8.660156 C 26.527344 9.5625 26.378906 10.46875 26.378906 11.453125 C 26.378906 12.433594 26.527344 13.414062 26.90625 14.320312 C 27.28125 15.226562 27.808594 15.980469 28.484375 16.660156 C 29.160156 17.339844 29.910156 17.867188 30.8125 18.246094 C 31.714844 18.621094 32.691406 18.847656 33.667969 18.847656 L 44.265625 18.847656 C 45.167969 18.847656 45.992188 19.148438 46.671875 19.828125 C 47.347656 20.433594 47.648438 21.261719 47.648438 22.246094 C 47.648438 23.300781 47.269531 24.132812 46.59375 24.8125 C 45.917969 25.492188 45.167969 25.867188 44.265625 25.867188 L 26.304688 25.867188 L 26.304688 29.566406 L 44.113281 29.566406 C 45.09375 29.566406 46.070312 29.339844 46.820312 28.960938 C 47.648438 28.585938 48.398438 28.054688 49.074219 27.378906 C 49.75 26.699219 50.203125 25.941406 50.578125 25.039062 C 50.953125 24.132812 51.105469 23.152344 51.105469 22.246094 C 51.105469 21.261719 50.878906 20.28125 50.578125 19.527344 C 50.203125 18.695312 49.675781 17.867188 49.074219 17.261719 C 48.398438 16.582031 47.648438 16.054688 46.820312 15.753906 C 45.992188 15.300781 45.015625 15.074219 44.113281 15.074219 L 33.59375 15.074219 C 32.542969 15.074219 31.714844 14.695312 31.113281 14.015625 C 30.4375 13.261719 30.0625 12.355469 30.0625 11.375 C 30.0625 10.320312 30.363281 9.5625 31.113281 8.960938 C 31.789062 8.355469 32.691406 7.980469 33.667969 7.980469 L 51.253906 7.980469 L 51.253906 4.28125 L 33.59375 4.28125 C 32.542969 4.28125 31.5625 4.507812 30.8125 4.882812 "/>
<path style=" stroke:none;fill-rule:nonzero;fill:rgb(100%,100%,100%);fill-opacity:1;" d="M 73.800781 7.980469 C 72.75 6.847656 71.394531 5.941406 69.894531 5.335938 C 68.390625 4.65625 66.8125 4.355469 65.082031 4.355469 C 63.355469 4.355469 61.699219 4.65625 60.199219 5.335938 C 58.695312 6.015625 57.417969 6.921875 56.289062 8.054688 C 55.164062 9.1875 54.261719 10.546875 53.660156 11.980469 C 52.984375 13.566406 52.683594 15.148438 52.683594 16.886719 L 52.683594 40.738281 L 56.363281 40.738281 L 56.363281 25.714844 C 57.265625 26.621094 58.242188 27.378906 59.371094 27.980469 C 61.101562 28.886719 62.980469 29.414062 65.082031 29.414062 C 66.8125 29.414062 68.390625 29.113281 69.894531 28.433594 C 71.394531 27.753906 72.671875 26.847656 73.800781 25.714844 C 74.929688 24.585938 75.90625 23.226562 76.507812 21.792969 C 77.183594 20.28125 77.558594 18.621094 77.558594 16.886719 C 77.558594 15.148438 77.257812 13.566406 76.582031 11.980469 C 75.90625 10.394531 75.003906 9.035156 73.800781 7.980469 M 65.082031 8.054688 C 66.285156 8.054688 67.414062 8.28125 68.464844 8.734375 C 69.515625 9.1875 70.492188 9.867188 71.246094 10.621094 C 72.070312 11.453125 72.671875 12.355469 73.125 13.488281 C 73.574219 14.546875 73.800781 15.753906 73.800781 16.886719 C 73.800781 18.019531 73.574219 19.226562 73.125 20.28125 C 72.671875 21.339844 71.996094 22.320312 71.246094 23.152344 C 70.417969 23.980469 69.515625 24.585938 68.464844 25.039062 C 66.359375 26.019531 63.804688 26.019531 61.699219 25.039062 C 60.648438 24.585938 59.671875 23.90625 58.996094 23.152344 C 58.167969 22.320312 57.566406 21.414062 57.117188 20.28125 C 56.664062 19.226562 56.441406 18.019531 56.441406 16.886719 C 56.441406 15.753906 56.664062 14.546875 57.117188 13.488281 C 57.566406 12.433594 58.242188 11.453125 58.996094 10.621094 C 59.820312 9.789062 60.722656 9.1875 61.699219 8.734375 C 62.828125 8.28125 63.957031 8.054688 65.082031 8.054688 "/>
<path style=" stroke:none;fill-rule:nonzero;fill:rgb(100%,100%,100%);fill-opacity:1;" d="M 78.984375 0.0546875 L 82.667969 0.0546875 L 82.667969 3.753906 L 78.984375 3.753906 Z M 78.984375 0.0546875 "/>
<path style=" stroke:none;fill-rule:nonzero;fill:rgb(100%,100%,100%);fill-opacity:1;" d="M 78.984375 4.507812 L 82.667969 4.507812 L 82.667969 29.414062 L 78.984375 29.414062 Z M 78.984375 4.507812 "/>
<path style=" stroke:none;fill-rule:nonzero;fill:rgb(100%,100%,100%);fill-opacity:1;" d="M 105.363281 7.980469 C 104.238281 6.847656 102.886719 5.941406 101.457031 5.335938 C 99.953125 4.65625 98.375 4.355469 96.648438 4.355469 C 94.84375 4.355469 93.265625 4.65625 91.761719 5.335938 C 90.257812 6.015625 88.980469 6.921875 87.855469 8.054688 C 86.726562 9.1875 85.824219 10.546875 85.222656 11.980469 C 84.546875 13.566406 84.246094 15.148438 84.246094 16.886719 L 84.246094 29.414062 L 87.929688 29.414062 L 87.929688 16.808594 C 87.929688 15.601562 88.15625 14.46875 88.605469 13.414062 C 89.058594 12.355469 89.734375 11.375 90.484375 10.546875 C 91.3125 9.714844 92.214844 9.113281 93.265625 8.660156 C 95.371094 7.675781 97.925781 7.675781 100.027344 8.660156 C 101.082031 9.113281 102.058594 9.789062 102.808594 10.546875 C 103.636719 11.375 104.238281 12.28125 104.6875 13.414062 C 105.140625 14.46875 105.363281 15.679688 105.363281 16.808594 L 105.363281 17.488281 L 109.046875 17.488281 L 109.046875 16.808594 C 109.046875 15.074219 108.671875 13.488281 107.996094 11.902344 C 107.394531 10.394531 106.566406 9.035156 105.363281 7.980469 "/>
<path style=" stroke:none;fill-rule:nonzero;fill:rgb(100%,100%,100%);fill-opacity:1;" d="M 135.425781 16.808594 C 135.425781 15.074219 135.125 13.488281 134.449219 11.902344 C 133.773438 10.394531 132.871094 9.035156 131.820312 7.980469 C 130.765625 6.921875 129.414062 5.941406 127.910156 5.261719 C 126.332031 4.582031 124.753906 4.28125 123.027344 4.28125 C 121.222656 4.28125 119.644531 4.582031 118.140625 5.261719 C 116.636719 5.941406 115.359375 6.847656 114.234375 7.980469 C 113.105469 9.113281 112.203125 10.46875 111.601562 11.902344 C 110.925781 13.488281 110.625 15.074219 110.625 16.808594 C 110.625 18.621094 110.925781 20.207031 111.601562 21.714844 C 112.277344 23.226562 113.179688 24.585938 114.234375 25.640625 C 115.359375 26.773438 116.636719 27.679688 118.140625 28.359375 C 119.644531 29.039062 121.296875 29.339844 123.027344 29.339844 C 124.378906 29.339844 125.65625 29.113281 126.933594 28.660156 C 128.210938 28.207031 129.339844 27.605469 130.390625 26.847656 C 131.441406 26.09375 132.421875 25.113281 133.097656 24.054688 C 133.847656 23 134.523438 21.792969 134.898438 20.585938 L 135.199219 19.679688 L 131.21875 19.679688 L 131.066406 20.132812 C 130.390625 21.792969 129.339844 23.074219 127.910156 24.132812 C 126.484375 25.113281 124.828125 25.640625 122.949219 25.640625 C 121.824219 25.640625 120.769531 25.414062 119.871094 25.039062 C 118.894531 24.660156 117.992188 24.054688 117.238281 23.375 C 116.414062 22.699219 115.8125 21.867188 115.285156 20.960938 C 114.910156 20.207031 114.609375 19.453125 114.382812 18.621094 L 135.425781 18.621094 Z M 131.59375 14.921875 L 114.457031 14.921875 C 114.683594 14.09375 114.984375 13.339844 115.359375 12.582031 C 115.886719 11.601562 116.5625 10.773438 117.3125 10.09375 C 118.140625 9.414062 119.042969 8.886719 119.945312 8.433594 C 121.898438 7.675781 124.152344 7.601562 126.183594 8.433594 C 127.160156 8.808594 128.136719 9.414062 128.8125 10.09375 C 129.640625 10.773438 130.242188 11.601562 130.765625 12.582031 C 131.066406 13.414062 131.367188 14.242188 131.59375 14.921875 "/>
<path style=" stroke:none;fill-rule:nonzero;fill:rgb(100%,100%,100%);fill-opacity:1;" d="M 141.589844 1.640625 C 142.566406 1.640625 143.46875 1.867188 144.21875 2.316406 C 145.121094 2.769531 145.796875 3.449219 146.25 4.355469 C 146.773438 5.261719 147 6.167969 147 7.148438 C 147 8.128906 146.773438 9.035156 146.25 9.867188 C 145.796875 10.773438 145.121094 11.453125 144.21875 11.902344 C 143.316406 12.355469 142.414062 12.660156 141.589844 12.660156 C 140.613281 12.660156 139.710938 12.433594 138.957031 11.902344 C 138.058594 11.453125 137.457031 10.773438 136.929688 9.867188 C 136.480469 8.960938 136.179688 8.054688 136.179688 7.148438 C 136.179688 6.167969 136.402344 5.261719 136.929688 4.355469 C 137.457031 3.449219 138.132812 2.769531 138.957031 2.316406 C 139.859375 1.867188 140.6875 1.640625 141.589844 1.640625 M 141.589844 2.695312 C 140.835938 2.695312 140.085938 2.921875 139.410156 3.300781 C 138.734375 3.675781 138.207031 4.207031 137.757812 4.960938 C 137.378906 5.640625 137.15625 6.394531 137.15625 7.222656 C 137.15625 7.980469 137.378906 8.734375 137.757812 9.414062 C 138.132812 10.09375 138.65625 10.695312 139.410156 11.074219 C 140.085938 11.453125 140.835938 11.675781 141.589844 11.675781 C 142.339844 11.675781 143.09375 11.453125 143.769531 11.074219 C 144.445312 10.695312 144.972656 10.167969 145.421875 9.414062 C 145.796875 8.734375 146.023438 7.980469 146.023438 7.222656 C 146.023438 6.46875 145.796875 5.714844 145.421875 4.960938 C 145.046875 4.28125 144.445312 3.675781 143.769531 3.300781 C 143.09375 2.921875 142.339844 2.695312 141.589844 2.695312 M 139.183594 9.941406 L 139.183594 4.207031 L 140.386719 4.207031 C 141.515625 4.207031 142.113281 4.207031 142.265625 4.207031 C 142.640625 4.207031 142.941406 4.28125 143.167969 4.433594 C 143.394531 4.582031 143.542969 4.734375 143.691406 4.960938 C 143.84375 5.1875 143.917969 5.488281 143.917969 5.789062 C 143.917969 6.242188 143.769531 6.546875 143.542969 6.847656 C 143.242188 7.148438 142.867188 7.300781 142.414062 7.375 C 142.566406 7.449219 142.714844 7.527344 142.792969 7.601562 C 142.867188 7.675781 143.015625 7.828125 143.167969 8.054688 C 143.242188 8.128906 143.316406 8.355469 143.617188 8.734375 L 144.292969 9.941406 L 142.792969 9.941406 L 142.339844 8.960938 C 142.039062 8.355469 141.738281 7.902344 141.515625 7.753906 C 141.289062 7.601562 141.0625 7.527344 140.6875 7.527344 L 140.386719 7.527344 L 140.386719 9.867188 Z M 140.386719 6.695312 L 140.835938 6.695312 C 141.515625 6.695312 141.964844 6.695312 142.113281 6.621094 C 142.265625 6.546875 142.414062 6.46875 142.492188 6.320312 C 142.566406 6.167969 142.640625 6.015625 142.640625 5.867188 C 142.640625 5.714844 142.566406 5.5625 142.492188 5.414062 C 142.414062 5.261719 142.265625 5.1875 142.113281 5.109375 C 141.964844 5.035156 141.515625 5.035156 140.835938 5.035156 L 140.386719 5.035156 Z M 140.386719 6.695312 "/>
<path style=" stroke:none;fill-rule:nonzero;fill:rgb(53.333333%,53.333333%,53.333333%);fill-opacity:1;" d="M 25.703125 47.90625 C 26.527344 48.585938 27.128906 49.417969 27.355469 50.550781 L 25.101562 50.550781 C 24.875 50.097656 24.574219 49.644531 24.125 49.417969 C 23.671875 49.113281 23.148438 48.964844 22.472656 48.964844 C 21.871094 48.964844 21.34375 49.113281 20.816406 49.417969 C 20.367188 49.71875 19.992188 50.097656 19.691406 50.625 C 19.390625 51.152344 19.3125 51.757812 19.3125 52.511719 C 19.3125 53.644531 19.613281 54.550781 20.214844 55.152344 C 20.816406 55.757812 21.644531 56.132812 22.621094 56.132812 C 23.371094 56.132812 24.050781 55.90625 24.574219 55.457031 C 25.101562 55.003906 25.476562 54.398438 25.628906 53.566406 L 22.09375 53.566406 L 22.09375 52.058594 L 27.429688 52.058594 L 27.429688 54.097656 C 27.28125 54.777344 26.980469 55.457031 26.527344 56.058594 C 26.078125 56.664062 25.476562 57.117188 24.800781 57.492188 C 24.125 57.871094 23.296875 58.023438 22.394531 58.023438 C 21.34375 58.023438 20.441406 57.796875 19.691406 57.34375 C 18.863281 56.890625 18.261719 56.210938 17.8125 55.378906 C 17.359375 54.550781 17.136719 53.566406 17.136719 52.511719 C 17.136719 51.453125 17.359375 50.472656 17.8125 49.644531 C 18.261719 48.8125 18.863281 48.132812 19.691406 47.679688 C 20.515625 47.226562 21.417969 47 22.394531 47 C 23.824219 47.078125 24.800781 47.378906 25.703125 47.90625 Z M 25.703125 47.90625 "/>
<path style=" stroke:none;fill-rule:nonzero;fill:rgb(53.333333%,53.333333%,53.333333%);fill-opacity:1;" d="M 40.132812 56.132812 L 43.664062 56.132812 L 43.664062 57.796875 L 38.027344 57.796875 L 38.027344 47.152344 L 40.132812 47.152344 Z M 40.132812 56.132812 "/>
<path style=" stroke:none;fill-rule:nonzero;fill:rgb(53.333333%,53.333333%,53.333333%);fill-opacity:1;" d="M 61.550781 47.679688 C 62.378906 48.132812 62.980469 48.8125 63.503906 49.644531 C 63.957031 50.472656 64.179688 51.453125 64.179688 52.511719 C 64.179688 53.566406 63.957031 54.550781 63.503906 55.304688 C 63.054688 56.132812 62.378906 56.8125 61.550781 57.265625 C 60.722656 57.71875 59.820312 57.945312 58.921875 57.945312 C 58.019531 57.945312 57.042969 57.71875 56.289062 57.265625 C 55.464844 56.8125 54.863281 56.132812 54.335938 55.304688 C 53.886719 54.472656 53.660156 53.492188 53.660156 52.511719 C 53.660156 51.453125 53.886719 50.472656 54.335938 49.644531 C 54.785156 48.8125 55.464844 48.132812 56.289062 47.679688 C 57.117188 47.226562 58.019531 47 58.921875 47 C 59.820312 47 60.722656 47.226562 61.550781 47.679688 Z M 57.191406 49.339844 C 56.742188 49.644531 56.363281 50.019531 56.0625 50.550781 C 55.765625 51.078125 55.6875 51.679688 55.6875 52.4375 C 55.6875 53.117188 55.839844 53.792969 56.0625 54.324219 C 56.363281 54.851562 56.742188 55.230469 57.191406 55.53125 C 57.644531 55.832031 58.242188 55.984375 58.84375 55.984375 C 59.445312 55.984375 60.046875 55.832031 60.5 55.53125 C 60.949219 55.230469 61.324219 54.851562 61.625 54.324219 C 61.925781 53.792969 62 53.191406 62 52.4375 C 62 51.757812 61.851562 51.078125 61.625 50.550781 C 61.324219 50.019531 60.949219 49.644531 60.5 49.339844 C 60.046875 49.039062 59.445312 48.886719 58.84375 48.886719 C 58.167969 48.886719 57.644531 49.039062 57.191406 49.339844 Z M 57.191406 49.339844 "/>
<path style=" stroke:none;fill-rule:nonzero;fill:rgb(53.333333%,53.333333%,53.333333%);fill-opacity:1;" d="M 82.066406 53.191406 C 82.441406 53.644531 82.667969 54.246094 82.667969 54.925781 C 82.667969 55.832031 82.367188 56.511719 81.765625 57.039062 C 81.164062 57.570312 80.265625 57.796875 79.210938 57.796875 L 74.703125 57.796875 L 74.703125 47.226562 L 79.136719 47.226562 C 80.1875 47.226562 81.015625 47.453125 81.542969 47.90625 C 82.144531 48.359375 82.441406 49.039062 82.441406 49.945312 C 82.441406 50.625 82.292969 51.152344 81.917969 51.605469 C 81.542969 52.058594 81.089844 52.285156 80.5625 52.4375 C 81.164062 52.4375 81.691406 52.738281 82.066406 53.191406 Z M 76.730469 51.605469 L 78.6875 51.605469 C 79.210938 51.605469 79.664062 51.453125 79.886719 51.226562 C 80.1875 51.003906 80.339844 50.625 80.339844 50.171875 C 80.339844 49.71875 80.1875 49.339844 79.964844 49.113281 C 79.664062 48.886719 79.285156 48.738281 78.6875 48.738281 L 76.808594 48.738281 Z M 80.113281 55.605469 C 80.414062 55.378906 80.5625 55.003906 80.5625 54.550781 C 80.5625 54.097656 80.414062 53.71875 80.113281 53.417969 C 79.8125 53.191406 79.363281 53.039062 78.835938 53.039062 L 76.808594 53.039062 L 76.808594 55.90625 L 78.835938 55.90625 C 79.363281 55.984375 79.738281 55.90625 80.113281 55.605469 Z M 80.113281 55.605469 "/>
<path style=" stroke:none;fill-rule:nonzero;fill:rgb(53.333333%,53.333333%,53.333333%);fill-opacity:1;" d="M 99.578125 55.605469 L 95.371094 55.605469 L 94.617188 57.796875 L 92.363281 57.796875 L 96.195312 47.304688 L 98.601562 47.304688 L 102.433594 57.796875 L 100.179688 57.796875 Z M 98.976562 53.945312 L 97.398438 49.492188 L 95.820312 53.945312 Z M 98.976562 53.945312 "/>
<path style=" stroke:none;fill-rule:nonzero;fill:rgb(53.333333%,53.333333%,53.333333%);fill-opacity:1;" d="M 114.683594 56.132812 L 118.214844 56.132812 L 118.214844 57.796875 L 112.578125 57.796875 L 112.578125 47.152344 L 114.683594 47.152344 Z M 114.683594 56.132812 "/>
</g>
</svg>
