<?xml version="1.0" encoding="UTF-8"?>
<svg xmlns="http://www.w3.org/2000/svg" xmlns:xlink="http://www.w3.org/1999/xlink" width="237pt" height="41pt" viewBox="0 0 237 41" version="1.1">
<g id="surface1">
<path style=" stroke:none;fill-rule:nonzero;fill:rgb(60%,60%,60%);fill-opacity:1;" d="M 232.40625 0.0546875 C 233.242188 0.0546875 234 0.253906 234.632812 0.628906 C 235.390625 1.007812 235.964844 1.585938 236.34375 2.339844 C 236.78125 3.097656 236.980469 3.875 236.980469 4.710938 C 236.980469 5.546875 236.78125 6.300781 236.34375 7 C 235.964844 7.753906 235.390625 8.332031 234.632812 8.710938 C 233.878906 9.085938 233.105469 9.347656 232.40625 9.347656 C 231.574219 9.347656 230.816406 9.148438 230.179688 8.710938 C 229.425781 8.332031 228.910156 7.753906 228.472656 7 C 228.09375 6.242188 227.835938 5.464844 227.835938 4.710938 C 227.835938 3.875 228.035156 3.117188 228.472656 2.339844 C 228.910156 1.585938 229.484375 1.007812 230.179688 0.628906 C 230.957031 0.253906 231.652344 0.0546875 232.40625 0.0546875 M 232.40625 0.949219 C 231.773438 0.949219 231.136719 1.148438 230.558594 1.464844 C 229.984375 1.785156 229.546875 2.222656 229.167969 2.859375 C 228.847656 3.4375 228.652344 4.074219 228.652344 4.769531 C 228.652344 5.40625 228.847656 6.042969 229.167969 6.621094 C 229.484375 7.195312 229.921875 7.695312 230.558594 8.011719 C 231.136719 8.332031 231.773438 8.53125 232.40625 8.53125 C 233.042969 8.53125 233.679688 8.332031 234.257812 8.011719 C 234.832031 7.695312 235.269531 7.257812 235.648438 6.621094 C 235.964844 6.042969 236.164062 5.40625 236.164062 4.769531 C 236.164062 4.132812 235.964844 3.496094 235.648438 2.859375 C 235.332031 2.28125 234.8125 1.785156 234.257812 1.464844 C 233.699219 1.148438 233.042969 0.949219 232.40625 0.949219 M 230.378906 7.058594 L 230.378906 2.222656 L 231.394531 2.222656 C 232.347656 2.222656 232.863281 2.222656 232.984375 2.222656 C 233.300781 2.222656 233.5625 2.28125 233.738281 2.421875 C 233.9375 2.539062 234.058594 2.679688 234.175781 2.859375 C 234.296875 3.058594 234.375 3.296875 234.375 3.554688 C 234.375 3.933594 234.257812 4.191406 234.058594 4.449219 C 233.800781 4.710938 233.480469 4.828125 233.105469 4.890625 C 233.222656 4.949219 233.363281 5.007812 233.421875 5.085938 C 233.480469 5.148438 233.621094 5.285156 233.738281 5.464844 C 233.800781 5.527344 233.859375 5.722656 234.117188 6.042969 L 234.695312 7.058594 L 233.421875 7.058594 L 233.042969 6.222656 C 232.785156 5.703125 232.527344 5.328125 232.347656 5.207031 C 232.167969 5.085938 231.96875 5.007812 231.652344 5.007812 L 231.394531 5.007812 L 231.394531 6.976562 Z M 231.394531 4.332031 L 231.773438 4.332031 C 232.347656 4.332031 232.726562 4.332031 232.84375 4.273438 C 232.964844 4.210938 233.105469 4.152344 233.164062 4.011719 C 233.222656 3.894531 233.28125 3.753906 233.28125 3.636719 C 233.28125 3.515625 233.222656 3.375 233.164062 3.257812 C 233.105469 3.136719 232.964844 3.058594 232.84375 3 C 232.726562 2.9375 232.328125 2.9375 231.773438 2.9375 L 231.394531 2.9375 Z M 231.394531 4.332031 "/>
<path style=" stroke:none;fill-rule:nonzero;fill:rgb(60%,60%,60%);fill-opacity:1;" d="M 133.429688 36.648438 L 138.855469 36.648438 C 140.347656 36.648438 141.640625 36.109375 142.691406 35.054688 C 143.746094 34 144.285156 32.707031 144.285156 31.214844 L 144.285156 28.648438 L 144.183594 28.75 C 142.515625 30.421875 140.148438 31.234375 137.046875 31.214844 C 134.003906 31.195312 131.441406 30.140625 129.335938 28.050781 C 127.226562 25.960938 126.191406 23.394531 126.191406 20.351562 C 126.191406 17.304688 127.246094 14.738281 129.335938 12.648438 C 131.441406 10.558594 134.003906 9.503906 137.046875 9.484375 C 139.832031 9.464844 142.214844 10.28125 144.222656 11.953125 C 146.230469 13.625 147.464844 15.8125 147.921875 18.539062 L 144.304688 18.539062 C 143.847656 16.828125 142.972656 15.476562 141.679688 14.519531 C 140.386719 13.546875 138.855469 13.085938 137.066406 13.105469 C 135.039062 13.128906 133.328125 13.84375 131.917969 15.238281 C 130.527344 16.628906 129.8125 18.339844 129.8125 20.351562 C 129.8125 22.359375 130.507812 24.050781 131.917969 25.464844 C 133.308594 26.859375 135.039062 27.574219 137.066406 27.59375 C 138.855469 27.613281 140.386719 27.15625 141.679688 26.179688 C 142.972656 25.207031 143.847656 23.871094 144.304688 22.160156 L 147.902344 22.160156 L 147.902344 31.214844 C 147.902344 33.742188 147.027344 35.890625 145.277344 37.644531 C 143.527344 39.394531 141.382812 40.269531 138.855469 40.269531 L 133.429688 40.269531 Z M 133.429688 36.648438 "/>
<path style=" stroke:none;fill-rule:nonzero;fill:rgb(60%,60%,60%);fill-opacity:1;" d="M 149.171875 2.222656 L 152.792969 2.222656 L 152.792969 31.214844 L 149.171875 31.214844 Z M 149.171875 2.222656 "/>
<path style=" stroke:none;fill-rule:nonzero;fill:rgb(60%,60%,60%);fill-opacity:1;" d="M 175.753906 20.351562 C 175.753906 23.394531 174.699219 25.960938 172.609375 28.070312 C 170.523438 30.179688 167.941406 31.214844 164.898438 31.214844 C 161.855469 31.214844 159.292969 30.160156 157.183594 28.070312 C 155.078125 25.960938 154.042969 23.394531 154.042969 20.351562 C 154.042969 17.304688 155.097656 14.738281 157.183594 12.628906 C 159.292969 10.519531 161.855469 9.484375 164.898438 9.484375 C 167.941406 9.484375 170.503906 10.539062 172.609375 12.628906 C 174.71875 14.71875 175.753906 17.304688 175.753906 20.351562 Z M 172.132812 20.351562 C 172.132812 18.300781 171.4375 16.570312 170.046875 15.195312 C 168.65625 13.804688 166.945312 13.105469 164.898438 13.105469 C 162.851562 13.105469 161.121094 13.804688 159.75 15.195312 C 158.359375 16.589844 157.660156 18.300781 157.660156 20.351562 C 157.660156 22.402344 158.359375 24.132812 159.75 25.503906 C 161.140625 26.898438 162.851562 27.59375 164.898438 27.59375 C 166.945312 27.59375 168.675781 26.898438 170.046875 25.503906 C 171.4375 24.132812 172.132812 22.402344 172.132812 20.351562 Z M 172.132812 20.351562 "/>
<path style=" stroke:none;fill-rule:nonzero;fill:rgb(60%,60%,60%);fill-opacity:1;" d="M 177.023438 2.222656 L 180.640625 2.222656 L 180.640625 12.230469 C 182.691406 10.402344 185.117188 9.484375 187.878906 9.484375 C 190.921875 9.484375 193.484375 10.539062 195.589844 12.628906 C 197.699219 14.71875 198.734375 17.304688 198.734375 20.351562 C 198.734375 23.394531 197.679688 25.960938 195.589844 28.070312 C 193.503906 30.179688 190.921875 31.214844 187.878906 31.214844 C 184.835938 31.214844 182.273438 30.160156 180.164062 28.070312 C 178.058594 25.960938 177.023438 23.394531 177.023438 20.351562 Z M 195.113281 20.351562 C 195.113281 18.300781 194.417969 16.570312 193.027344 15.195312 C 191.636719 13.804688 189.925781 13.105469 187.878906 13.105469 C 185.832031 13.105469 184.101562 13.804688 182.730469 15.195312 C 181.339844 16.589844 180.640625 18.300781 180.640625 20.351562 C 180.640625 22.402344 181.339844 24.132812 182.730469 25.503906 C 184.121094 26.898438 185.832031 27.59375 187.878906 27.59375 C 189.925781 27.59375 191.65625 26.898438 193.027344 25.503906 C 194.417969 24.132812 195.113281 22.402344 195.113281 20.351562 Z M 195.113281 20.351562 "/>
<path style=" stroke:none;fill-rule:nonzero;fill:rgb(60%,60%,60%);fill-opacity:1;" d="M 221.710938 20.351562 L 221.710938 31.214844 L 218.09375 31.214844 L 218.09375 28.46875 C 216.046875 30.300781 213.621094 31.214844 210.859375 31.214844 C 207.816406 31.214844 205.253906 30.160156 203.144531 28.070312 C 201.039062 25.960938 200.003906 23.394531 200.003906 20.351562 C 200.003906 17.304688 201.058594 14.738281 203.144531 12.628906 C 205.253906 10.519531 207.816406 9.484375 210.859375 9.484375 C 213.898438 9.484375 216.464844 10.539062 218.570312 12.628906 C 220.679688 14.71875 221.710938 17.304688 221.710938 20.351562 Z M 218.09375 20.351562 C 218.09375 18.300781 217.398438 16.570312 216.007812 15.195312 C 214.617188 13.804688 212.90625 13.105469 210.859375 13.105469 C 208.8125 13.105469 207.082031 13.804688 205.710938 15.195312 C 204.320312 16.589844 203.621094 18.300781 203.621094 20.351562 C 203.621094 22.402344 204.320312 24.132812 205.710938 25.503906 C 207.101562 26.898438 208.8125 27.59375 210.859375 27.59375 C 212.90625 27.59375 214.636719 26.898438 216.007812 25.503906 C 217.398438 24.132812 218.09375 22.402344 218.09375 20.351562 Z M 218.09375 20.351562 "/>
<path style=" stroke:none;fill-rule:nonzero;fill:rgb(60%,60%,60%);fill-opacity:1;" d="M 222.964844 2.222656 L 226.582031 2.222656 L 226.582031 31.214844 L 222.964844 31.214844 Z M 222.964844 2.222656 "/>
<path style=" stroke:none;fill-rule:nonzero;fill:rgb(0%,0%,0%);fill-opacity:1;" d="M 20.734375 16.171875 C 20.476562 15.535156 20.15625 14.917969 19.78125 14.339844 C 19.402344 13.765625 18.984375 13.246094 18.507812 12.769531 C 17.554688 11.792969 16.378906 11.019531 15.046875 10.402344 C 13.796875 9.84375 12.363281 9.546875 10.792969 9.546875 C 9.222656 9.546875 7.792969 9.84375 6.539062 10.402344 C 5.269531 10.976562 4.15625 11.753906 3.140625 12.75 C 2.167969 13.722656 1.371094 14.917969 0.855469 16.171875 C 0.277344 17.503906 0 18.898438 0 20.429688 C 0 22.042969 0.277344 23.394531 0.855469 24.6875 C 1.453125 26.003906 2.246094 27.175781 3.140625 28.089844 C 4.15625 29.105469 5.269531 29.863281 6.539062 30.441406 C 7.792969 30.996094 9.222656 31.296875 10.792969 31.296875 C 12.582031 31.296875 14.132812 30.898438 15.703125 30.0625 C 16.578125 29.625 17.335938 29.105469 17.972656 28.53125 L 17.972656 31.253906 L 21.589844 31.253906 L 21.589844 20.449219 C 21.589844 18.898438 21.308594 17.503906 20.734375 16.171875 Z M 10.792969 13.246094 C 11.789062 13.246094 12.722656 13.425781 13.578125 13.804688 C 14.414062 14.160156 15.226562 14.71875 15.863281 15.335938 C 16.617188 16.171875 17.097656 16.886719 17.414062 17.703125 C 17.773438 18.539062 17.972656 19.535156 17.972656 20.488281 C 17.972656 21.445312 17.773438 22.441406 17.414062 23.277344 C 17.078125 24.070312 16.539062 24.90625 15.863281 25.625 C 15.1875 26.300781 14.472656 26.796875 13.578125 27.175781 C 11.847656 27.972656 9.78125 27.992188 8.03125 27.175781 C 7.195312 26.816406 6.382812 26.261719 5.746094 25.625 C 5.050781 24.949219 4.570312 24.191406 4.195312 23.277344 C 3.835938 22.441406 3.636719 21.445312 3.636719 20.488281 C 3.636719 19.535156 3.835938 18.539062 4.195312 17.703125 C 4.53125 16.90625 5.070312 16.074219 5.746094 15.355469 C 6.421875 14.679688 7.136719 14.183594 8.03125 13.804688 C 8.925781 13.445312 9.878906 13.246094 10.792969 13.246094 Z M 10.792969 13.246094 "/>
<path style=" stroke:none;fill-rule:nonzero;fill:rgb(0%,0%,0%);fill-opacity:1;" d="M 26.460938 15.8125 C 26.460938 16.570312 26.738281 17.285156 27.292969 17.882812 C 27.769531 18.421875 28.425781 18.699219 29.222656 18.699219 L 38.167969 18.699219 C 39.003906 18.699219 39.859375 18.917969 40.574219 19.296875 C 41.269531 19.554688 41.945312 19.992188 42.5625 20.628906 C 43.058594 21.125 43.535156 21.84375 43.894531 22.621094 C 44.191406 23.375 44.371094 24.25 44.371094 25.027344 C 44.371094 25.902344 44.210938 26.757812 43.914062 27.496094 C 43.554688 28.351562 43.136719 28.988281 42.582031 29.5625 C 41.984375 30.160156 41.328125 30.617188 40.59375 30.957031 C 39.917969 31.296875 39.042969 31.496094 38.1875 31.496094 L 22.78125 31.496094 L 22.78125 27.851562 L 38.308594 27.851562 C 38.984375 27.851562 39.558594 27.59375 40.117188 27.035156 C 40.671875 26.480469 40.929688 25.824219 40.929688 25.046875 C 40.929688 24.25 40.671875 23.632812 40.175781 23.195312 C 39.660156 22.679688 39.023438 22.421875 38.289062 22.421875 L 29.28125 22.421875 C 28.46875 22.421875 27.59375 22.242188 26.757812 21.882812 C 25.980469 21.566406 25.324219 21.105469 24.691406 20.488281 C 24.074219 19.875 23.617188 19.195312 23.296875 18.421875 C 22.980469 17.683594 22.839844 16.828125 22.839844 15.894531 C 22.839844 14.976562 23 14.203125 23.296875 13.425781 C 23.636719 12.6875 24.09375 12.011719 24.691406 11.414062 C 25.367188 10.820312 26.042969 10.382812 26.738281 10.082031 C 27.433594 9.746094 28.308594 9.546875 29.203125 9.546875 L 44.46875 9.546875 L 44.46875 13.1875 L 29.261719 13.1875 C 28.527344 13.1875 27.8125 13.464844 27.253906 13.964844 C 26.699219 14.421875 26.460938 14.976562 26.460938 15.8125 Z M 26.460938 15.8125 "/>
<path style=" stroke:none;fill-rule:nonzero;fill:rgb(0%,0%,0%);fill-opacity:1;" d="M 66.398438 16.230469 C 65.78125 14.777344 64.984375 13.644531 63.972656 12.769531 C 63.058594 11.792969 61.882812 10.996094 60.570312 10.480469 C 59.300781 9.902344 57.929688 9.625 56.378906 9.625 C 54.808594 9.625 53.375 9.902344 52.125 10.480469 C 50.851562 11.058594 49.738281 11.832031 48.722656 12.828125 C 47.75 13.804688 46.953125 14.976562 46.4375 16.230469 C 45.863281 17.585938 45.582031 18.9375 45.582031 20.488281 L 45.582031 40.964844 L 49.199219 40.964844 L 49.199219 28.570312 C 49.898438 29.207031 50.613281 29.703125 51.386719 30.121094 C 52.996094 30.957031 54.609375 31.355469 56.359375 31.355469 C 57.90625 31.355469 59.28125 31.078125 60.550781 30.5 C 61.824219 29.921875 62.9375 29.144531 63.953125 28.152344 C 64.984375 27.117188 65.800781 25.941406 66.296875 24.75 C 66.914062 23.394531 67.210938 21.960938 67.210938 20.488281 C 67.25 18.957031 66.972656 17.566406 66.398438 16.230469 Z M 56.398438 13.246094 C 57.390625 13.246094 58.324219 13.425781 59.179688 13.804688 C 60.015625 14.160156 60.832031 14.71875 61.464844 15.355469 C 62.164062 16.050781 62.640625 16.789062 63.015625 17.703125 C 63.375 18.539062 63.574219 19.535156 63.574219 20.488281 C 63.574219 21.445312 63.375 22.441406 63.015625 23.277344 C 62.679688 24.070312 62.140625 24.90625 61.464844 25.625 C 60.789062 26.300781 60.074219 26.796875 59.179688 27.175781 C 57.449219 27.972656 55.363281 27.992188 53.632812 27.175781 C 52.78125 26.796875 51.964844 26.242188 51.40625 25.625 C 50.710938 24.949219 50.234375 24.191406 49.855469 23.277344 C 49.5 22.441406 49.300781 21.445312 49.300781 20.488281 C 49.300781 19.535156 49.5 18.539062 49.855469 17.703125 C 50.195312 16.90625 50.730469 16.074219 51.40625 15.355469 C 52.0625 14.699219 52.78125 14.203125 53.613281 13.804688 C 54.527344 13.445312 55.464844 13.246094 56.398438 13.246094 Z M 56.398438 13.246094 "/>
<path style=" stroke:none;fill-rule:nonzero;fill:rgb(0%,0%,0%);fill-opacity:1;" d="M 68.363281 5.167969 L 71.984375 5.167969 L 71.984375 8.789062 L 68.363281 8.789062 Z M 68.363281 5.167969 "/>
<path style=" stroke:none;fill-rule:nonzero;fill:rgb(0%,0%,0%);fill-opacity:1;" d="M 68.363281 9.746094 L 71.984375 9.746094 L 71.984375 31.355469 L 68.363281 31.355469 Z M 68.363281 9.746094 "/>
<path style=" stroke:none;fill-rule:nonzero;fill:rgb(0%,0%,0%);fill-opacity:1;" d="M 94.824219 20.429688 L 94.824219 21.265625 L 91.207031 21.265625 L 91.207031 20.429688 C 91.207031 19.476562 91.007812 18.480469 90.648438 17.644531 C 90.292969 16.730469 89.792969 15.972656 89.097656 15.296875 C 88.460938 14.660156 87.648438 14.101562 86.8125 13.742188 C 85.0625 12.929688 82.996094 12.929688 81.265625 13.742188 C 80.371094 14.121094 79.65625 14.621094 78.980469 15.296875 C 78.324219 16.03125 77.789062 16.847656 77.429688 17.644531 C 77.070312 18.5 76.871094 19.433594 76.871094 20.429688 L 76.871094 31.355469 L 73.253906 31.355469 L 73.253906 20.488281 C 73.253906 18.9375 73.535156 17.585938 74.109375 16.230469 C 74.644531 14.976562 75.421875 13.804688 76.394531 12.828125 C 77.410156 11.8125 78.523438 11.058594 79.796875 10.480469 C 81.085938 9.902344 82.4375 9.625 84.050781 9.625 C 85.601562 9.625 86.972656 9.902344 88.242188 10.480469 C 89.496094 10.996094 90.667969 11.792969 91.644531 12.769531 C 92.617188 13.625 93.351562 14.738281 93.949219 16.191406 C 94.527344 17.605469 94.824219 18.996094 94.824219 20.429688 Z M 94.824219 20.429688 "/>
<path style=" stroke:none;fill-rule:nonzero;fill:rgb(0%,0%,0%);fill-opacity:1;" d="M 113.46875 23.136719 C 112.933594 24.449219 112.078125 25.523438 110.867188 26.421875 C 109.671875 27.234375 108.300781 27.652344 106.792969 27.652344 C 105.917969 27.652344 105.042969 27.476562 104.265625 27.15625 C 103.53125 26.878906 102.777344 26.398438 102.101562 25.785156 C 101.503906 25.285156 101.007812 24.6875 100.507812 23.8125 C 100.230469 23.257812 100.011719 22.738281 99.851562 22.179688 L 117.664062 22.179688 L 117.664062 20.390625 C 117.664062 18.859375 117.386719 17.464844 116.808594 16.132812 C 116.214844 14.820312 115.417969 13.644531 114.523438 12.730469 C 113.550781 11.753906 112.378906 10.9375 111.125 10.382812 C 109.792969 9.804688 108.402344 9.523438 106.871094 9.523438 C 105.261719 9.523438 103.910156 9.804688 102.617188 10.382812 C 101.34375 10.957031 100.230469 11.734375 99.21875 12.730469 C 98.242188 13.703125 97.449219 14.878906 96.929688 16.132812 C 96.355469 17.464844 96.078125 18.859375 96.078125 20.390625 C 96.078125 22.003906 96.355469 23.355469 96.929688 24.648438 C 97.527344 25.960938 98.324219 27.136719 99.21875 28.050781 C 100.230469 29.066406 101.34375 29.824219 102.617188 30.398438 C 103.867188 30.957031 105.300781 31.253906 106.871094 31.253906 C 108.042969 31.253906 109.15625 31.058594 110.269531 30.660156 C 111.34375 30.28125 112.335938 29.761719 113.273438 29.085938 C 114.226562 28.410156 115.0625 27.535156 115.636719 26.660156 C 116.371094 25.644531 116.910156 24.589844 117.207031 23.652344 L 117.40625 23.058594 L 113.492188 23.058594 Z M 100.550781 16.96875 C 100.964844 16.210938 101.503906 15.515625 102.160156 14.9375 C 102.753906 14.441406 103.453125 14.003906 104.347656 13.566406 C 106.015625 12.929688 107.882812 12.929688 109.453125 13.566406 C 110.289062 13.882812 111.066406 14.382812 111.601562 14.917969 L 111.621094 14.9375 C 112.238281 15.4375 112.734375 16.074219 113.210938 16.949219 C 113.410156 17.503906 113.628906 18.082031 113.789062 18.578125 L 99.894531 18.578125 C 100.070312 18.042969 100.289062 17.503906 100.550781 16.96875 Z M 100.550781 16.96875 "/>
</g>
</svg>
