<?xml version="1.0" encoding="UTF-8"?>
<svg xmlns="http://www.w3.org/2000/svg" xmlns:xlink="http://www.w3.org/1999/xlink" width="182pt" height="50pt" viewBox="0 0 182 50" version="1.1">
<g id="surface1">
<path style=" stroke:none;fill-rule:nonzero;fill:rgb(100%,41.960784%,0%);fill-opacity:1;" d="M 26.398438 9.710938 C 25.027344 8.332031 23.386719 7.25 21.527344 6.441406 C 19.640625 5.628906 17.632812 5.234375 15.527344 5.234375 C 13.375 5.234375 11.34375 5.628906 9.480469 6.441406 C 7.644531 7.226562 6.003906 8.332031 4.632812 9.710938 C 3.238281 11.085938 2.136719 12.734375 1.355469 14.601562 C 0.570312 16.496094 0.15625 18.511719 0.15625 20.648438 C 0.15625 22.8125 0.570312 24.851562 1.355469 26.722656 C 2.136719 28.589844 3.238281 30.210938 4.609375 31.589844 C 5.980469 32.964844 7.597656 34.070312 9.457031 34.859375 C 11.316406 35.667969 13.347656 36.0625 15.503906 36.0625 C 17.953125 36.0625 20.277344 35.496094 22.429688 34.367188 C 23.875 33.628906 25.148438 32.695312 26.273438 31.613281 L 26.273438 36.0625 L 30.851562 36.0625 L 30.851562 20.648438 C 30.851562 18.511719 30.4375 16.496094 29.652344 14.601562 C 28.84375 12.734375 27.742188 11.085938 26.398438 9.710938 M 15.503906 9.832031 C 16.972656 9.832031 18.367188 10.128906 19.664062 10.691406 C 20.988281 11.28125 22.136719 12.046875 23.09375 13.027344 C 24.046875 13.988281 24.832031 15.140625 25.417969 16.46875 C 25.980469 17.773438 26.273438 19.175781 26.273438 20.648438 C 26.273438 22.125 25.980469 23.523438 25.417969 24.828125 C 24.832031 26.15625 24.046875 27.3125 23.09375 28.269531 C 22.113281 29.226562 20.960938 30.039062 19.664062 30.605469 C 17.070312 31.761719 13.9375 31.761719 11.34375 30.605469 C 10.042969 30.039062 8.894531 29.253906 7.914062 28.269531 C 6.960938 27.285156 6.175781 26.128906 5.589844 24.828125 C 5.027344 23.523438 4.730469 22.125 4.730469 20.648438 C 4.730469 19.175781 5.027344 17.773438 5.589844 16.46875 C 6.175781 15.167969 6.933594 14.011719 7.914062 13.027344 C 8.871094 12.046875 10.042969 11.28125 11.34375 10.691406 C 12.640625 10.128906 14.035156 9.832031 15.503906 9.832031 "/>
<path style=" stroke:none;fill-rule:nonzero;fill:rgb(100%,41.960784%,0%);fill-opacity:1;" d="M 38.074219 5.925781 C 36.996094 6.367188 36.042969 7.007812 35.234375 7.792969 C 34.425781 8.578125 33.789062 9.511719 33.347656 10.570312 C 32.910156 11.628906 32.6875 12.757812 32.6875 13.960938 C 32.6875 15.167969 32.910156 16.324219 33.347656 17.402344 C 33.789062 18.484375 34.425781 19.46875 35.234375 20.28125 C 36.042969 21.089844 36.996094 21.730469 38.050781 22.222656 C 39.152344 22.714844 40.351562 22.960938 41.625 22.960938 L 54.671875 22.960938 C 55.796875 22.960938 56.726562 23.328125 57.558594 24.113281 C 58.367188 24.878906 58.785156 25.835938 58.785156 27.089844 C 58.785156 28.34375 58.367188 29.375 57.535156 30.234375 C 56.703125 31.097656 55.773438 31.488281 54.671875 31.488281 L 32.664062 31.488281 L 32.664062 36.085938 L 54.671875 36.085938 C 55.871094 36.085938 57.023438 35.839844 58.074219 35.324219 C 59.101562 34.832031 60.03125 34.195312 60.816406 33.382812 C 61.597656 32.570312 62.210938 31.613281 62.675781 30.53125 C 63.117188 29.449219 63.335938 28.292969 63.335938 27.089844 C 63.335938 25.886719 63.117188 24.753906 62.652344 23.695312 C 62.210938 22.664062 61.574219 21.730469 60.792969 20.945312 C 60.007812 20.15625 59.078125 19.519531 58.023438 19.074219 C 56.972656 18.609375 55.847656 18.386719 54.648438 18.386719 L 41.597656 18.386719 C 40.351562 18.386719 39.324219 17.96875 38.464844 17.109375 C 37.609375 16.25 37.191406 15.214844 37.191406 13.960938 C 37.191406 12.734375 37.609375 11.75 38.441406 11.011719 C 39.296875 10.226562 40.328125 9.859375 41.597656 9.859375 L 63.3125 9.859375 L 63.3125 5.234375 L 41.597656 5.234375 C 40.351562 5.234375 39.152344 5.457031 38.074219 5.925781 "/>
<path style=" stroke:none;fill-rule:nonzero;fill:rgb(100%,41.960784%,0%);fill-opacity:1;" d="M 91.246094 9.710938 C 89.847656 8.332031 88.210938 7.25 86.375 6.464844 C 84.539062 5.652344 82.554688 5.261719 80.472656 5.261719 C 78.320312 5.261719 76.289062 5.652344 74.453125 6.464844 C 72.617188 7.25 70.976562 8.359375 69.605469 9.734375 C 68.234375 11.109375 67.132812 12.757812 66.347656 14.625 C 65.539062 16.519531 65.148438 18.535156 65.148438 20.671875 L 65.148438 50.023438 L 69.726562 50.023438 L 69.726562 31.636719 C 70.804688 32.71875 72.050781 33.628906 73.421875 34.390625 C 75.503906 35.519531 77.878906 36.085938 80.472656 36.085938 C 82.554688 36.085938 84.539062 35.691406 86.375 34.882812 C 88.183594 34.09375 89.847656 32.988281 91.246094 31.613281 C 92.664062 30.234375 93.765625 28.613281 94.597656 26.746094 C 95.429688 24.878906 95.824219 22.835938 95.824219 20.671875 C 95.824219 18.535156 95.40625 16.519531 94.597656 14.625 C 93.765625 12.734375 92.640625 11.085938 91.246094 9.710938 M 80.472656 9.832031 C 81.941406 9.832031 83.335938 10.128906 84.636719 10.691406 C 85.957031 11.28125 87.109375 12.046875 88.0625 13.027344 C 89.042969 13.988281 89.800781 15.140625 90.386719 16.46875 C 90.949219 17.773438 91.246094 19.199219 91.246094 20.648438 C 91.246094 22.125 90.949219 23.523438 90.386719 24.828125 C 89.824219 26.15625 89.042969 27.3125 88.0625 28.269531 C 87.082031 29.226562 85.933594 30.039062 84.636719 30.605469 C 82.039062 31.761719 78.90625 31.761719 76.3125 30.605469 C 75.015625 30.039062 73.863281 29.253906 72.882812 28.269531 C 71.90625 27.285156 71.148438 26.128906 70.558594 24.828125 C 69.996094 23.523438 69.703125 22.125 69.703125 20.648438 C 69.703125 19.175781 69.996094 17.773438 70.558594 16.46875 C 71.121094 15.167969 71.90625 14.011719 72.882812 13.027344 C 73.839844 12.046875 74.988281 11.28125 76.3125 10.691406 C 77.609375 10.128906 79.027344 9.832031 80.472656 9.832031 "/>
<path style=" stroke:none;fill-rule:nonzero;fill:rgb(100%,41.960784%,0%);fill-opacity:1;" d="M 97.632812 0 L 102.210938 0 L 102.210938 4.574219 L 97.632812 4.574219 Z M 97.632812 0 "/>
<path style=" stroke:none;fill-rule:nonzero;fill:rgb(100%,41.960784%,0%);fill-opacity:1;" d="M 97.632812 5.457031 L 102.210938 5.457031 L 102.210938 36.039062 L 97.632812 36.039062 Z M 97.632812 5.457031 "/>
<path style=" stroke:none;fill-rule:nonzero;fill:rgb(100%,41.960784%,0%);fill-opacity:1;" d="M 130.121094 9.710938 C 128.722656 8.332031 127.082031 7.25 125.246094 6.464844 C 123.410156 5.652344 121.429688 5.261719 119.347656 5.261719 C 117.195312 5.261719 115.160156 5.652344 113.300781 6.464844 C 111.464844 7.25 109.824219 8.359375 108.453125 9.734375 C 107.082031 11.109375 105.980469 12.757812 105.199219 14.625 C 104.414062 16.519531 104 18.535156 104 20.671875 L 104 36.085938 L 108.578125 36.085938 L 108.578125 20.648438 C 108.578125 19.175781 108.871094 17.773438 109.433594 16.46875 C 109.996094 15.167969 110.78125 14.011719 111.757812 13.027344 C 112.738281 12.046875 113.890625 11.28125 115.1875 10.691406 C 117.78125 9.539062 120.914062 9.539062 123.507812 10.691406 C 124.808594 11.28125 125.957031 12.046875 126.9375 13.027344 C 127.890625 13.988281 128.675781 15.140625 129.261719 16.46875 C 129.824219 17.773438 130.121094 19.175781 130.121094 20.648438 L 130.121094 21.484375 L 134.695312 21.484375 L 134.695312 20.648438 C 134.695312 18.511719 134.28125 16.496094 133.472656 14.601562 C 132.664062 12.734375 131.539062 11.085938 130.121094 9.710938 "/>
<path style=" stroke:none;fill-rule:nonzero;fill:rgb(100%,41.960784%,0%);fill-opacity:1;" d="M 167.207031 20.648438 C 167.207031 18.511719 166.816406 16.496094 166.007812 14.601562 C 165.222656 12.734375 164.121094 11.085938 162.75 9.710938 C 161.378906 8.332031 159.738281 7.25 157.878906 6.441406 C 155.996094 5.628906 153.988281 5.234375 151.859375 5.234375 C 149.703125 5.234375 147.671875 5.628906 145.8125 6.441406 C 143.949219 7.226562 142.335938 8.332031 140.964844 9.710938 C 139.59375 11.085938 138.515625 12.734375 137.707031 14.601562 C 136.898438 16.496094 136.507812 18.511719 136.507812 20.648438 C 136.507812 22.8125 136.898438 24.851562 137.707031 26.722656 C 138.492188 28.589844 139.59375 30.210938 140.964844 31.589844 C 142.335938 32.964844 143.949219 34.070312 145.8125 34.859375 C 147.671875 35.667969 149.703125 36.0625 151.859375 36.0625 C 153.523438 36.0625 155.164062 35.792969 156.730469 35.226562 C 158.269531 34.683594 159.691406 33.921875 160.964844 32.988281 C 162.261719 32.054688 163.386719 30.925781 164.34375 29.597656 C 165.296875 28.292969 166.054688 26.84375 166.570312 25.296875 L 166.960938 24.1875 L 162.042969 24.1875 L 161.84375 24.703125 C 161.011719 26.769531 159.714844 28.417969 157.953125 29.621094 C 156.214844 30.851562 154.160156 31.464844 151.859375 31.464844 C 150.488281 31.464844 149.214844 31.21875 148.015625 30.726562 C 146.789062 30.234375 145.714844 29.574219 144.734375 28.738281 C 143.777344 27.925781 142.972656 26.917969 142.335938 25.761719 C 141.871094 24.878906 141.503906 23.941406 141.257812 22.910156 L 167.183594 22.910156 L 167.183594 20.648438 Z M 162.457031 18.363281 L 141.28125 18.363281 C 141.527344 17.378906 141.894531 16.445312 142.359375 15.535156 C 142.996094 14.378906 143.777344 13.371094 144.757812 12.535156 C 145.738281 11.699219 146.839844 11.039062 148.039062 10.546875 C 150.386719 9.585938 153.226562 9.5625 155.699219 10.546875 C 156.925781 11.039062 158.027344 11.699219 159.003906 12.535156 C 159.960938 13.347656 160.769531 14.355469 161.40625 15.511719 C 161.84375 16.421875 162.210938 17.355469 162.457031 18.363281 "/>
<path style=" stroke:none;fill-rule:nonzero;fill:rgb(100%,41.960784%,0%);fill-opacity:1;" d="M 175.1875 1.941406 C 176.335938 1.941406 177.4375 2.238281 178.46875 2.800781 C 179.519531 3.367188 180.351562 4.203125 180.941406 5.261719 C 181.550781 6.34375 181.84375 7.449219 181.84375 8.628906 C 181.84375 9.785156 181.550781 10.914062 180.964844 11.972656 C 180.375 13.027344 179.542969 13.839844 178.492188 14.429688 C 177.4375 15.019531 176.335938 15.316406 175.164062 15.316406 C 174.011719 15.316406 172.910156 15.019531 171.859375 14.429688 C 170.804688 13.839844 169.996094 13.003906 169.386719 11.972656 C 168.796875 10.914062 168.503906 9.808594 168.503906 8.628906 C 168.503906 7.449219 168.796875 6.34375 169.410156 5.261719 C 170.023438 4.179688 170.828125 3.367188 171.882812 2.800781 C 172.960938 2.238281 174.035156 1.941406 175.1875 1.941406 M 175.210938 3.246094 C 174.304688 3.246094 173.425781 3.464844 172.566406 3.933594 C 171.734375 4.398438 171.074219 5.0625 170.585938 5.925781 C 170.09375 6.785156 169.851562 7.695312 169.851562 8.628906 C 169.851562 9.5625 170.09375 10.472656 170.558594 11.308594 C 171.023438 12.167969 171.6875 12.832031 172.542969 13.300781 C 173.398438 13.765625 174.28125 14.011719 175.210938 14.011719 C 176.140625 14.011719 177.023438 13.765625 177.878906 13.300781 C 178.710938 12.832031 179.371094 12.167969 179.863281 11.308594 C 180.328125 10.449219 180.574219 9.5625 180.574219 8.628906 C 180.574219 7.695312 180.328125 6.785156 179.839844 5.925781 C 179.347656 5.0625 178.6875 4.398438 177.855469 3.933594 C 177 3.492188 176.117188 3.246094 175.210938 3.246094 M 172.175781 12.21875 L 172.175781 5.113281 L 173.621094 5.113281 C 174.964844 5.113281 175.726562 5.113281 175.871094 5.136719 C 176.335938 5.1875 176.730469 5.285156 176.972656 5.433594 C 177.242188 5.582031 177.464844 5.800781 177.636719 6.121094 C 177.804688 6.414062 177.902344 6.761719 177.902344 7.128906 C 177.902344 7.644531 177.734375 8.085938 177.414062 8.433594 C 177.070312 8.800781 176.605469 9.023438 176.019531 9.121094 C 176.238281 9.195312 176.410156 9.292969 176.507812 9.390625 C 176.632812 9.488281 176.777344 9.660156 177 9.929688 C 177.046875 10.003906 177.21875 10.300781 177.511719 10.792969 L 178.34375 12.21875 L 176.582031 12.21875 L 175.996094 11.0625 C 175.601562 10.273438 175.261719 9.808594 174.992188 9.585938 C 174.722656 9.390625 174.402344 9.292969 174.011719 9.292969 L 173.644531 9.292969 L 173.644531 12.21875 Z M 173.621094 8.1875 L 174.207031 8.1875 C 175.039062 8.1875 175.554688 8.160156 175.75 8.085938 C 175.945312 8.015625 176.117188 7.914062 176.214844 7.742188 C 176.335938 7.597656 176.386719 7.398438 176.386719 7.203125 C 176.386719 7.007812 176.335938 6.832031 176.214844 6.6875 C 176.09375 6.539062 175.945312 6.414062 175.726562 6.34375 C 175.503906 6.269531 174.992188 6.242188 174.183594 6.242188 L 173.597656 6.242188 L 173.597656 8.1875 Z M 173.621094 8.1875 "/>
</g>
</svg>
