<?xml version="1.0" encoding="UTF-8"?>
<svg xmlns="http://www.w3.org/2000/svg" xmlns:xlink="http://www.w3.org/1999/xlink" width="144pt" height="43pt" viewBox="0 0 144 43" version="1.1">
<g id="surface1">
<path style=" stroke:none;fill-rule:nonzero;fill:rgb(100%,100%,100%);fill-opacity:1;" d="M 42.601562 42.898438 L 47.898438 42.898438 C 47.898438 42 47.898438 29.398438 47.898438 28.5 C 50.5 30.398438 53.601562 31.699219 56.898438 31.601562 C 65.898438 31.300781 71.699219 24.398438 71.300781 16.300781 C 70.800781 8.398438 63.898438 2.300781 56 2.800781 C 48.5 3.398438 42.699219 9.601562 42.601562 17.199219 C 42.601562 22 42.601562 38.101562 42.601562 42.898438 M 56.800781 26.199219 C 51.898438 26.300781 47.800781 22.300781 47.699219 17.398438 C 47.601562 12.5 51.601562 8.300781 56.5 8.199219 C 56.699219 8.199219 56.699219 8.199219 56.800781 8.199219 C 61.699219 8.300781 65.699219 12.398438 65.601562 17.398438 C 65.601562 22.199219 61.601562 26.101562 56.800781 26.199219 Z M 56.800781 26.199219 "/>
<path style=" stroke:none;fill-rule:nonzero;fill:rgb(100%,100%,100%);fill-opacity:1;" d="M 101.199219 2.800781 L 101.199219 8.101562 C 100.5 8.300781 99.800781 8.300781 99.101562 8.5 C 95.199219 9.5 92.398438 13 92.398438 17.300781 C 92.398438 22.101562 92.398438 26.800781 92.398438 31.5 L 86.898438 31.5 L 86.898438 17.398438 C 86.898438 9.898438 92.699219 3.5 100.199219 3 C 100.5 2.800781 100.800781 2.800781 101.199219 2.800781 "/>
<path style=" stroke:none;fill-rule:nonzero;fill:rgb(100%,100%,100%);fill-opacity:1;" d="M 76.398438 2.800781 L 81.699219 2.800781 L 81.699219 31.398438 L 76.398438 31.398438 Z M 76.398438 2.800781 "/>
<path style=" stroke:none;fill-rule:nonzero;fill:rgb(100%,100%,100%);fill-opacity:1;" d="M 127.601562 7.5 C 125.101562 4.800781 121.699219 3.101562 118 2.898438 C 117.699219 2.898438 117.300781 2.898438 116.898438 2.898438 C 115 2.898438 113.101562 3.199219 111.300781 4 C 110.398438 4.300781 109.601562 4.699219 108.800781 5.300781 C 108.101562 5.800781 107.199219 6.5 106.699219 7.101562 C 105.398438 8.398438 104.300781 10.101562 103.699219 11.800781 C 102.199219 15.398438 102.199219 19.5 103.800781 23.101562 C 104.5 24.898438 105.699219 26.601562 107.199219 27.898438 C 109.898438 30.398438 113.398438 31.800781 117.101562 31.800781 C 120.699219 31.800781 124.199219 30.398438 126.800781 27.898438 C 127.800781 27 128.601562 25.898438 129.300781 24.800781 C 130 23.601562 130.601562 22.300781 131.101562 21 L 131.300781 20.300781 L 125.800781 20.300781 L 125.601562 20.601562 C 125.398438 21.300781 125 21.898438 124.699219 22.5 C 124.300781 23.101562 124 23.601562 123.5 24.101562 C 122.898438 24.800781 122.199219 25.300781 121.398438 25.699219 C 119.699219 26.601562 117.601562 27 115.601562 26.699219 C 113.601562 26.5 111.699219 25.5 110.300781 24.101562 C 109.601562 23.398438 109.101562 22.699219 108.699219 22 C 108.5 21.800781 108.398438 21.398438 108.300781 21.101562 C 108.101562 20.601562 107.898438 20.101562 107.800781 19.5 L 131.300781 19.5 L 131.300781 19 C 131.300781 18.601562 131.300781 18.300781 131.300781 17.800781 C 131.398438 13.800781 130 10.300781 127.601562 7.5 Z M 108.199219 14.300781 C 108.199219 14.199219 108.300781 14.101562 108.300781 14.101562 C 109.101562 12 110.699219 10.101562 112.699219 9.101562 C 113 8.898438 113.398438 8.800781 113.601562 8.699219 C 114.601562 8.300781 115.699219 8 116.898438 8 C 118.101562 8 119.101562 8.300781 120.199219 8.699219 C 121.601562 9.199219 122.898438 10.101562 124 11.199219 C 124.898438 12.101562 125.601562 13.300781 125.898438 14.5 Z M 108.199219 14.300781 "/>
<path style=" stroke:none;fill-rule:nonzero;fill:rgb(100%,100%,100%);fill-opacity:1;" d="M 37.5 22.898438 C 37.5 23.5 37.398438 24.101562 37.300781 24.601562 C 37.101562 25.199219 37.101562 25.699219 36.800781 26.199219 C 36.601562 26.699219 36.300781 27.199219 36.101562 27.699219 C 35.898438 28.101562 35.398438 28.601562 35.101562 28.898438 C 34.699219 29.300781 34.398438 29.601562 33.898438 29.898438 C 33.5 30.199219 33 30.5 32.5 30.699219 C 32 30.898438 31.5 31.101562 30.898438 31.199219 C 30.300781 31.398438 29.800781 31.398438 29.300781 31.398438 L 10.101562 31.398438 L 10.101562 26.398438 L 29.199219 26.398438 C 29.601562 26.398438 30 26.300781 30.398438 26.199219 C 30.800781 26 31.101562 25.800781 31.398438 25.5 C 31.699219 25.199219 32 24.800781 32.101562 24.300781 C 32.300781 23.898438 32.300781 23.398438 32.300781 22.898438 C 32.300781 22.5 32.199219 22 32.101562 21.601562 C 32 21.199219 31.699219 20.898438 31.398438 20.601562 C 31.101562 20.398438 30.699219 20.101562 30.300781 19.898438 C 29.898438 19.699219 29.5 19.699219 29.101562 19.699219 L 17.898438 19.699219 C 17.300781 19.699219 16.800781 19.601562 16.101562 19.5 C 15.5 19.300781 14.898438 19.199219 14.5 19 C 14 18.800781 13.5 18.5 13.101562 18.199219 C 12.699219 17.898438 12.199219 17.5 11.898438 17.199219 C 11.601562 16.898438 11.199219 16.398438 10.898438 16 C 10.601562 15.5 10.300781 15 10.199219 14.5 C 10 14 9.800781 13.398438 9.699219 12.898438 C 9.601562 12.300781 9.5 11.800781 9.5 11.199219 C 9.5 10.601562 9.601562 10 9.699219 9.601562 C 9.699219 9 9.898438 8.398438 10.101562 7.898438 C 10.300781 7.398438 10.601562 6.898438 10.800781 6.5 C 11.101562 6.101562 11.5 5.699219 11.800781 5.300781 C 12.101562 4.898438 12.601562 4.601562 13.101562 4.300781 C 13.601562 4 14.101562 3.699219 14.601562 3.601562 C 15.101562 3.398438 15.699219 3.199219 16.199219 3.101562 C 16.800781 3 17.300781 2.898438 17.898438 2.898438 L 34.699219 2.898438 L 34.699219 8 L 17.898438 8 C 17.398438 8 17 8 16.5 8.199219 C 16.101562 8.398438 15.800781 8.601562 15.300781 8.898438 C 15 9.101562 14.699219 9.601562 14.601562 9.898438 C 14.398438 10.300781 14.398438 10.800781 14.398438 11.199219 C 14.398438 11.699219 14.5 12.101562 14.601562 12.601562 C 14.800781 13 15 13.300781 15.300781 13.800781 C 15.601562 14.101562 16 14.398438 16.398438 14.5 C 16.800781 14.699219 17.300781 14.699219 17.800781 14.699219 L 29.101562 14.699219 C 29.699219 14.699219 30.300781 14.800781 30.699219 14.898438 C 31.199219 15 31.800781 15.101562 32.300781 15.398438 C 32.800781 15.601562 33.300781 15.898438 33.699219 16.101562 C 34.101562 16.398438 34.5 16.800781 34.898438 17.101562 C 35.300781 17.5 35.601562 17.800781 35.898438 18.300781 C 36.199219 18.699219 36.5 19.199219 36.601562 19.699219 C 36.800781 20.199219 37 20.699219 37.101562 21.300781 C 37.5 21.800781 37.5 22.300781 37.5 22.898438 Z M 37.5 22.898438 "/>
<path style=" stroke:none;fill-rule:nonzero;fill:rgb(100%,100%,100%);fill-opacity:1;" d="M 0 2.800781 L 5.300781 2.800781 L 5.300781 31.398438 L 0 31.398438 Z M 0 2.800781 "/>
<path style=" stroke:none;fill-rule:nonzero;fill:rgb(100%,100%,100%);fill-opacity:1;" d="M 138 0.101562 C 139.101562 0.101562 140.101562 0.300781 141 0.800781 C 142 1.300781 142.699219 2 143.199219 3 C 143.800781 4 144 5 144 6.101562 C 144 7.199219 143.800781 8.199219 143.199219 9.199219 C 142.699219 10.199219 141.898438 10.898438 141 11.398438 C 140 11.898438 139 12.199219 138 12.199219 C 136.898438 12.199219 135.898438 12 135 11.398438 C 134 10.898438 133.300781 10.101562 132.800781 9.199219 C 132.199219 8.199219 132 7.199219 132 6.101562 C 132 5 132.199219 4 132.800781 3 C 133.398438 2 134.101562 1.300781 135 0.800781 C 135.898438 0.398438 136.898438 0.101562 138 0.101562 M 138 1.300781 C 137.199219 1.300781 136.398438 1.5 135.601562 2 C 134.898438 2.398438 134.199219 3 133.800781 3.800781 C 133.398438 4.5 133.101562 5.398438 133.101562 6.300781 C 133.101562 7.101562 133.300781 8 133.800781 8.800781 C 134.199219 9.5 134.800781 10.199219 135.601562 10.601562 C 136.300781 11 137.199219 11.300781 138 11.300781 C 138.800781 11.300781 139.601562 11.101562 140.398438 10.601562 C 141.101562 10.199219 141.800781 9.5 142.199219 8.800781 C 142.601562 8.101562 142.898438 7.199219 142.898438 6.300781 C 142.898438 5.5 142.699219 4.699219 142.199219 3.800781 C 141.800781 3.101562 141.101562 2.398438 140.398438 2 C 139.601562 1.5 138.800781 1.300781 138 1.300781 M 135.300781 9.398438 L 135.300781 3 L 136.601562 3 C 137.800781 3 138.5 3 138.699219 3 C 139.101562 3 139.398438 3.101562 139.699219 3.199219 C 139.898438 3.398438 140.101562 3.5 140.300781 3.800781 C 140.5 4 140.5 4.398438 140.5 4.699219 C 140.5 5.199219 140.300781 5.5 140 5.898438 C 139.699219 6.199219 139.300781 6.398438 138.800781 6.5 C 139 6.601562 139.101562 6.699219 139.199219 6.699219 C 139.300781 6.800781 139.398438 6.898438 139.601562 7.199219 C 139.699219 7.300781 139.800781 7.5 140.101562 7.898438 L 140.800781 9.199219 L 139.199219 9.199219 L 138.601562 8.101562 C 138.300781 7.398438 137.898438 6.898438 137.699219 6.800781 C 137.5 6.601562 137.101562 6.601562 136.800781 6.601562 L 136.5 6.601562 L 136.5 9.199219 L 135.398438 9.199219 L 135.398438 9.398438 Z M 136.5 5.800781 L 137 5.800781 C 137.699219 5.800781 138.199219 5.800781 138.398438 5.699219 C 138.601562 5.601562 138.699219 5.5 138.800781 5.398438 C 138.898438 5.199219 139 5.101562 139 4.898438 C 139 4.699219 138.898438 4.601562 138.800781 4.398438 C 138.699219 4.199219 138.601562 4.199219 138.398438 4.101562 C 138.199219 4 137.800781 4 137 4 L 136.5 4 Z M 136.5 5.800781 "/>
</g>
</svg>
