<?xml version="1.0" encoding="UTF-8"?>
<svg xmlns="http://www.w3.org/2000/svg" xmlns:xlink="http://www.w3.org/1999/xlink" width="290pt" height="290pt" viewBox="0 0 290 290" version="1.1">
<g id="surface1">
<path style=" stroke:none;fill-rule:nonzero;fill:rgb(100%,100%,100%);fill-opacity:1;" d="M 190.804688 255.171875 L 190.804688 235.214844 L 180.925781 235.214844 L 185.316406 239.804688 L 185.417969 255.171875 Z M 190.804688 255.171875 "/>
<path style=" stroke:none;fill-rule:nonzero;fill:rgb(100%,100%,100%);fill-opacity:1;" d="M 111.070312 240.003906 L 122.246094 240.003906 L 122.246094 235.214844 L 100.691406 235.214844 L 105.382812 240.003906 Z M 111.070312 240.003906 "/>
<path style=" stroke:none;fill-rule:nonzero;fill:rgb(100%,100%,100%);fill-opacity:1;" d="M 122.246094 250.382812 L 111.070312 250.382812 L 111.070312 247.1875 L 121.050781 247.1875 L 121.050781 243.195312 L 105.582031 243.195312 L 105.582031 255.171875 L 122.246094 255.171875 Z M 122.246094 250.382812 "/>
<path style=" stroke:none;fill-rule:nonzero;fill:rgb(100%,100%,100%);fill-opacity:1;" d="M 96.199219 247.488281 C 96.199219 246.191406 95.800781 245.09375 94.902344 244.292969 C 94.003906 243.394531 92.90625 242.996094 91.710938 242.996094 L 83.828125 242.996094 C 83.628906 242.996094 83.425781 242.898438 83.425781 242.597656 L 83.425781 240.402344 C 83.425781 240.203125 83.527344 240.003906 83.828125 240.003906 L 90.414062 240.003906 C 90.613281 240.003906 90.8125 240.101562 90.710938 240.402344 L 90.710938 241.5 L 96.101562 241.5 L 96.101562 239.703125 C 96.101562 238.40625 95.703125 237.308594 94.804688 236.511719 C 93.90625 235.613281 92.808594 235.214844 91.609375 235.214844 L 73.25 235.214844 L 77.9375 240.003906 L 77.9375 242.898438 C 77.9375 244.195312 78.339844 245.292969 79.234375 246.089844 C 80.132812 246.988281 81.230469 247.386719 82.429688 247.386719 L 90.3125 247.386719 C 90.511719 247.386719 90.710938 247.488281 90.613281 247.789062 L 90.613281 249.984375 C 90.613281 250.183594 90.511719 250.382812 90.3125 250.382812 L 83.726562 250.382812 C 83.527344 250.382812 83.328125 250.28125 83.328125 249.984375 L 83.328125 248.886719 L 77.9375 248.886719 L 77.9375 250.679688 C 77.9375 251.980469 78.339844 253.078125 79.234375 253.875 C 80.132812 254.773438 81.230469 255.171875 82.429688 255.171875 L 92.210938 255.171875 C 93.507812 255.171875 94.40625 254.773438 95.101562 253.875 C 95.703125 252.976562 96.101562 251.878906 96.101562 250.679688 Z M 96.199219 247.488281 "/>
<path style=" stroke:none;fill-rule:nonzero;fill:rgb(100%,100%,100%);fill-opacity:1;" d="M 176.433594 247.488281 C 176.433594 246.191406 176.035156 245.09375 175.136719 244.292969 C 174.238281 243.394531 173.140625 242.996094 171.945312 242.996094 L 164.0625 242.996094 C 163.859375 242.996094 163.660156 242.898438 163.660156 242.597656 L 163.660156 240.402344 C 163.660156 240.203125 163.761719 240.003906 164.0625 240.003906 L 170.648438 240.003906 C 170.847656 240.003906 171.046875 240.101562 170.945312 240.402344 L 170.945312 241.5 L 176.335938 241.5 L 176.335938 239.703125 C 176.335938 238.40625 175.9375 237.308594 175.039062 236.511719 C 174.140625 235.613281 173.042969 235.214844 171.84375 235.214844 L 153.484375 235.214844 L 158.171875 240.003906 L 158.171875 242.898438 C 158.171875 244.195312 158.570312 245.292969 159.46875 246.089844 C 160.367188 246.988281 161.464844 247.386719 162.664062 247.386719 L 170.546875 247.386719 C 170.746094 247.386719 170.945312 247.488281 170.847656 247.789062 L 170.847656 249.984375 C 170.847656 250.183594 170.746094 250.382812 170.546875 250.382812 L 163.960938 250.382812 C 163.761719 250.382812 163.5625 250.28125 163.5625 249.984375 L 163.5625 248.886719 L 158.171875 248.886719 L 158.171875 250.679688 C 158.171875 251.980469 158.570312 253.078125 159.46875 253.875 C 160.367188 254.773438 161.464844 255.171875 162.664062 255.171875 L 172.441406 255.171875 C 173.742188 255.171875 174.640625 254.773438 175.335938 253.875 C 175.9375 252.976562 176.335938 251.878906 176.335938 250.679688 Z M 176.433594 247.488281 "/>
<path style=" stroke:none;fill-rule:nonzero;fill:rgb(100%,100%,100%);fill-opacity:1;" d="M 216.75 240.003906 L 216.75 235.214844 L 195.296875 235.214844 L 200.085938 240.003906 L 204.675781 240.003906 L 204.675781 255.171875 L 210.066406 255.171875 L 210.066406 240.003906 Z M 216.75 240.003906 "/>
<path style=" stroke:none;fill-rule:nonzero;fill:rgb(100%,100%,100%);fill-opacity:1;" d="M 149.890625 255.171875 L 149.890625 235.214844 L 144.402344 235.214844 L 144.402344 247.089844 L 136.515625 235.214844 L 126.539062 235.214844 L 131.027344 239.804688 L 131.027344 255.171875 L 136.515625 255.171875 L 136.515625 243.296875 L 144.699219 255.171875 Z M 149.890625 255.171875 "/>
<path style=" stroke:none;fill-rule:nonzero;fill:rgb(100%,100%,100%);fill-opacity:1;" d="M 145 290 C 65.066406 290 0 224.933594 0 145 C 0 65.066406 65.066406 0 145 0 C 224.933594 0 290 65.066406 290 145 C 290 224.933594 224.933594 290 145 290 Z M 145 6.585938 C 68.65625 6.585938 6.585938 68.65625 6.585938 145 C 6.585938 221.34375 68.65625 283.511719 145.101562 283.511719 C 221.542969 283.511719 283.613281 221.441406 283.613281 145 C 283.613281 68.558594 221.34375 6.585938 145 6.585938 Z M 145 6.585938 "/>
<path style=" stroke:none;fill-rule:nonzero;fill:rgb(100%,100%,100%);fill-opacity:1;" d="M 87.617188 138.714844 C 95.703125 143.703125 103.484375 147.992188 110.96875 151.585938 C 111.171875 151.085938 111.46875 150.488281 111.867188 149.988281 C 113.265625 147.992188 115.359375 146.597656 117.757812 146.199219 L 120.449219 145.699219 C 120.152344 145.597656 119.753906 145.5 119.453125 145.398438 C 119.453125 145.398438 119.351562 145.398438 119.351562 145.398438 C 114.960938 145.398438 111.171875 142.207031 110.371094 137.914062 C 109.972656 135.519531 110.472656 133.023438 111.867188 131.027344 C 113.265625 129.03125 115.359375 127.636719 117.757812 127.238281 L 120.449219 126.738281 C 120.152344 126.636719 119.753906 126.539062 119.453125 126.4375 C 119.453125 126.4375 119.351562 126.4375 119.351562 126.4375 C 114.960938 126.4375 111.171875 123.246094 110.371094 118.953125 C 109.972656 116.558594 110.472656 114.0625 111.867188 112.066406 C 113.265625 110.070312 115.359375 108.675781 117.757812 108.277344 L 120.449219 107.777344 C 120.152344 107.675781 119.753906 107.578125 119.453125 107.476562 C 119.453125 107.476562 119.351562 107.476562 119.351562 107.476562 C 114.960938 107.476562 111.171875 104.285156 110.371094 99.992188 C 109.972656 97.597656 110.472656 95.101562 111.867188 93.105469 C 113.265625 91.113281 115.359375 89.714844 117.757812 89.316406 L 120.449219 88.816406 C 120.152344 88.714844 119.753906 88.617188 119.453125 88.515625 C 119.453125 88.515625 119.351562 88.515625 119.351562 88.515625 C 114.960938 88.515625 111.171875 85.324219 110.371094 81.03125 C 110.070312 79.535156 110.171875 78.039062 110.671875 76.640625 C 106.679688 72.449219 104.683594 67.261719 104.683594 61.074219 C 104.683594 54.886719 107.675781 49.695312 113.664062 45.605469 C 119.652344 41.515625 126.238281 39.417969 133.222656 39.417969 C 143.703125 39.417969 152.683594 41.316406 160.167969 45.207031 C 167.652344 49.097656 175.238281 55.386719 182.820312 64.167969 C 190.40625 72.949219 195.59375 80.933594 198.289062 87.917969 C 200.984375 95.003906 202.679688 99.992188 203.578125 102.886719 L 208.269531 102.886719 L 208.269531 34.328125 L 203.378906 34.328125 C 203.378906 40.515625 202.582031 45.707031 201.082031 49.996094 C 199.488281 54.1875 196.292969 56.285156 191.304688 56.285156 L 164.460938 41.316406 C 155.179688 36.625 145.597656 34.328125 135.71875 34.328125 C 117.957031 34.328125 102.289062 40.214844 88.617188 51.894531 C 75.042969 63.570312 68.257812 77.9375 68.257812 94.804688 C 68.257812 116.359375 74.746094 131.027344 87.617188 138.714844 Z M 87.617188 138.714844 "/>
<path style=" stroke:none;fill-rule:nonzero;fill:rgb(100%,100%,100%);fill-opacity:1;" d="M 212.460938 134.421875 C 205.175781 124.34375 195.996094 116.660156 184.71875 111.371094 C 183.019531 110.570312 181.324219 109.773438 179.726562 109.074219 C 179.527344 110.371094 179.03125 111.667969 178.230469 112.867188 C 176.835938 114.863281 174.738281 116.257812 172.34375 116.660156 L 169.648438 117.15625 C 169.949219 117.257812 170.347656 117.355469 170.648438 117.457031 C 170.648438 117.457031 170.746094 117.457031 170.746094 117.457031 C 175.136719 117.457031 178.929688 120.648438 179.726562 124.941406 C 180.625 129.929688 177.332031 134.722656 172.34375 135.621094 L 169.648438 136.117188 C 169.949219 136.21875 170.347656 136.316406 170.648438 136.417969 C 170.648438 136.417969 170.746094 136.417969 170.746094 136.417969 C 175.136719 136.417969 178.929688 139.609375 179.726562 143.902344 C 180.128906 146.296875 179.628906 148.792969 178.230469 150.789062 C 176.835938 152.785156 174.738281 154.179688 172.34375 154.582031 L 169.648438 155.078125 C 169.949219 155.179688 170.347656 155.277344 170.648438 155.378906 C 170.648438 155.378906 170.746094 155.378906 170.746094 155.378906 C 175.136719 155.378906 178.929688 158.570312 179.726562 162.863281 C 180.128906 165.257812 179.628906 167.753906 178.230469 169.75 C 176.835938 171.746094 174.738281 173.140625 172.34375 173.539062 L 169.648438 174.039062 C 169.949219 174.140625 170.347656 174.238281 170.648438 174.339844 C 170.648438 174.339844 170.746094 174.339844 170.746094 174.339844 C 175.136719 174.339844 178.929688 177.53125 179.726562 181.824219 C 179.828125 182.621094 179.929688 183.421875 179.828125 184.21875 C 183.019531 188.410156 184.617188 193.800781 184.617188 200.484375 C 184.617188 206.671875 181.921875 212.0625 176.632812 216.550781 C 171.246094 221.042969 164.359375 223.238281 155.976562 223.238281 C 141.308594 223.238281 128.433594 219.445312 117.355469 211.863281 C 106.28125 204.277344 97.296875 194.796875 90.511719 183.320312 C 83.726562 171.84375 79.035156 161.964844 76.542969 153.683594 C 74.046875 145.398438 72.25 139.511719 71.253906 135.820312 L 66.863281 135.820312 L 66.863281 228.328125 L 71.253906 228.328125 C 72.449219 218.148438 73.746094 210.964844 75.144531 206.574219 C 76.542969 202.28125 80.035156 200.085938 85.722656 200.085938 C 88.019531 200.085938 96.300781 204.777344 110.871094 214.15625 C 125.339844 223.539062 140.011719 228.226562 154.878906 228.226562 C 171.84375 228.226562 187.511719 222.738281 201.882812 211.761719 C 216.253906 200.785156 223.539062 186.8125 223.539062 169.75 C 223.339844 156.476562 219.746094 144.601562 212.460938 134.421875 Z M 212.460938 134.421875 "/>
<path style=" stroke:none;fill-rule:nonzero;fill:rgb(100%,100%,100%);fill-opacity:1;" d="M 169.25 183.019531 L 137.214844 177.035156 L 120.851562 180.128906 L 152.785156 186.015625 Z M 169.25 183.019531 "/>
<path style=" stroke:none;fill-rule:nonzero;fill:rgb(100%,100%,100%);fill-opacity:1;" d="M 137.214844 156.976562 L 120.851562 160.070312 L 152.785156 166.054688 L 169.25 162.960938 Z M 137.214844 156.976562 "/>
<path style=" stroke:none;fill-rule:nonzero;fill:rgb(100%,100%,100%);fill-opacity:1;" d="M 137.214844 137.015625 L 120.851562 140.109375 L 152.785156 145.996094 L 169.25 142.90625 Z M 137.214844 137.015625 "/>
<path style=" stroke:none;fill-rule:nonzero;fill:rgb(100%,100%,100%);fill-opacity:1;" d="M 137.214844 116.957031 L 120.851562 120.050781 L 152.785156 125.9375 L 169.25 122.945312 Z M 137.214844 116.957031 "/>
<path style=" stroke:none;fill-rule:nonzero;fill:rgb(100%,100%,100%);fill-opacity:1;" d="M 137.214844 97 L 120.851562 99.992188 L 152.785156 105.980469 L 169.25 102.886719 Z M 137.214844 97 "/>
<path style=" stroke:none;fill-rule:nonzero;fill:rgb(100%,100%,100%);fill-opacity:1;" d="M 137.214844 76.941406 L 120.851562 80.035156 L 152.785156 85.921875 L 169.25 82.929688 Z M 137.214844 76.941406 "/>
<path style=" stroke:none;fill-rule:nonzero;fill:rgb(100%,100%,100%);fill-opacity:1;" d="M 171.445312 183.621094 L 117.558594 193.597656 C 115.960938 193.898438 114.863281 195.496094 115.160156 197.09375 C 115.460938 198.488281 116.660156 199.585938 118.15625 199.585938 C 118.355469 199.585938 118.554688 199.585938 118.753906 199.488281 L 172.644531 189.507812 C 174.238281 189.207031 175.335938 187.613281 175.039062 186.015625 C 174.640625 184.320312 173.042969 183.320312 171.445312 183.621094 Z M 171.445312 183.621094 "/>
<path style=" stroke:none;fill-rule:nonzero;fill:rgb(100%,100%,100%);fill-opacity:1;" d="M 118.054688 179.527344 C 118.253906 179.527344 118.453125 179.527344 118.65625 179.429688 L 172.542969 169.449219 C 174.140625 169.148438 175.238281 167.554688 174.9375 165.957031 C 174.640625 164.359375 173.042969 163.261719 171.445312 163.5625 L 117.558594 173.539062 C 115.960938 173.839844 114.863281 175.4375 115.160156 177.035156 C 115.359375 178.53125 116.660156 179.527344 118.054688 179.527344 Z M 118.054688 179.527344 "/>
<path style=" stroke:none;fill-rule:nonzero;fill:rgb(100%,100%,100%);fill-opacity:1;" d="M 118.054688 159.46875 C 118.253906 159.46875 118.453125 159.46875 118.65625 159.371094 L 172.542969 149.390625 C 174.140625 149.089844 175.238281 147.496094 174.9375 145.898438 C 174.640625 144.300781 173.042969 143.203125 171.445312 143.503906 L 117.558594 153.484375 C 115.960938 153.78125 114.863281 155.378906 115.160156 156.976562 C 115.359375 158.472656 116.660156 159.46875 118.054688 159.46875 Z M 118.054688 159.46875 "/>
<path style=" stroke:none;fill-rule:nonzero;fill:rgb(100%,100%,100%);fill-opacity:1;" d="M 118.054688 139.511719 C 118.253906 139.511719 118.453125 139.511719 118.65625 139.410156 L 172.542969 129.433594 C 174.140625 129.132812 175.238281 127.535156 174.9375 125.9375 C 174.640625 124.34375 173.042969 123.246094 171.445312 123.542969 L 117.558594 133.523438 C 115.960938 133.824219 114.863281 135.417969 115.160156 137.015625 C 115.359375 138.511719 116.660156 139.511719 118.054688 139.511719 Z M 118.054688 139.511719 "/>
<path style=" stroke:none;fill-rule:nonzero;fill:rgb(100%,100%,100%);fill-opacity:1;" d="M 118.054688 119.453125 C 118.253906 119.453125 118.453125 119.453125 118.65625 119.351562 L 172.542969 109.375 C 174.140625 109.074219 175.238281 107.476562 174.9375 105.882812 C 174.640625 104.285156 173.042969 103.1875 171.445312 103.484375 L 117.558594 113.464844 C 115.960938 113.765625 114.863281 115.359375 115.160156 116.957031 C 115.359375 118.453125 116.660156 119.453125 118.054688 119.453125 Z M 118.054688 119.453125 "/>
<path style=" stroke:none;fill-rule:nonzero;fill:rgb(100%,100%,100%);fill-opacity:1;" d="M 118.054688 99.496094 C 118.253906 99.496094 118.453125 99.496094 118.65625 99.394531 L 172.542969 89.414062 C 174.140625 89.117188 175.238281 87.519531 174.9375 85.921875 C 174.640625 84.324219 173.042969 83.226562 171.445312 83.527344 L 117.558594 93.507812 C 115.960938 93.804688 114.863281 95.402344 115.160156 97 C 115.359375 98.496094 116.660156 99.496094 118.054688 99.496094 Z M 118.054688 99.496094 "/>
<path style=" stroke:none;fill-rule:nonzero;fill:rgb(100%,100%,100%);fill-opacity:1;" d="M 118.054688 79.4375 C 118.253906 79.4375 118.453125 79.4375 118.65625 79.335938 L 172.542969 69.355469 C 174.140625 69.058594 175.238281 67.460938 174.9375 65.863281 C 174.640625 64.265625 173.042969 63.167969 171.445312 63.46875 L 117.558594 73.449219 C 115.960938 73.746094 114.863281 75.34375 115.160156 76.941406 C 115.359375 78.4375 116.660156 79.4375 118.054688 79.4375 Z M 118.054688 79.4375 "/>
</g>
</svg>
